<svg width="53" height="63" viewBox="0 0 53 63" fill="none" xmlns="http://www.w3.org/2000/svg">
<path d="M13.5571 6.66335L13.5571 6.66332C19.4352 1.46595 25.9851 -0.420826 32.9743 1.46329C40.2418 3.39381 45.5563 8.2488 48.9196 15.6628C48.9197 15.6628 48.9197 15.6629 48.9197 15.6629L48.692 15.7662L13.5571 6.66335ZM13.5571 6.66335C8.26476 11.3439 4.56874 17.5966 2.3945 25.2859C0.163975 33.1708 0.167896 40.4458 2.61816 46.9872L2.61823 46.9874C5.44133 54.5065 11.0426 59.3038 19.1199 61.2785L19.12 61.2785C27.9429 63.4317 35.6523 62.0381 41.8628 56.7689L41.8631 56.7686L41.8651 56.7669C41.8651 56.7669 41.8651 56.7669 41.8651 56.7669C47.2394 52.196 50.4736 45.7405 51.7368 37.6633L51.7369 37.6627M13.5571 6.66335L51.7369 37.6627M51.7369 37.6627L51.7378 37.6568L51.4907 37.6189L51.7369 37.6627ZM28.2606 56.2218L28.2761 56.2196L28.3068 56.4369L28.2761 56.2196C28.544 56.1818 28.8078 56.1399 29.0676 56.0941L29.0821 56.0915L29.0821 56.0915C29.3488 56.0443 29.6112 55.9928 29.8695 55.9372L29.885 55.9338C29.885 55.9338 29.885 55.9338 29.885 55.9338C30.9773 55.6974 31.9945 55.3854 32.9369 54.9983L32.9369 54.9983L32.9413 54.9965L32.9435 54.9956C34.9561 54.1916 36.7452 53.0641 38.3124 51.6127L38.313 51.6122L38.3157 51.6096L38.3158 51.6096C39.75 50.2894 41.0846 48.6295 42.3179 46.6262L42.318 46.6262L42.3196 46.6234L42.3197 46.6233L42.3214 46.6206L43.1106 45.2111L43.8196 43.7649L44.4515 42.2365L45.0468 40.7008L45.5247 40.8417C45.411 41.3926 45.2789 41.9369 45.1284 42.4747L45.1284 42.4747L45.1271 42.4794L45.127 42.4794C44.975 43.0221 44.8043 43.558 44.6148 44.0872L44.6148 44.0872L44.6071 44.1088C44.4216 44.6251 44.2184 45.135 43.9973 45.6384L43.9866 45.6627C43.876 45.9139 43.7609 46.1634 43.6414 46.4113C43.5237 46.6554 43.4018 46.8978 43.2756 47.1387C43.2754 47.1389 43.2753 47.1392 43.2752 47.1394L43.2723 47.145L43.0502 47.0302L43.2723 47.145L43.2611 47.1665L43.2611 47.1666L43.0392 47.0514C41.9817 49.0901 40.6354 50.8553 39.0005 52.347L28.2606 56.2218ZM28.2606 56.2218C28.2606 56.2218 28.2605 56.2218 28.2605 56.2218L28.2606 56.2218ZM13.9689 15.3362L13.479 15.3484C13.0911 13.6438 13.4406 12.0576 14.5157 10.6079L14.5199 10.6022L14.52 10.6023L14.534 10.5845L14.5344 10.584L14.54 10.5769L14.7361 10.7319L14.54 10.5768C15.109 9.85744 15.7509 9.31501 16.4675 8.95815C17.2471 8.51749 18.0619 8.32145 18.907 8.37735L18.9777 8.86111C18.2499 9.13193 17.6003 9.47628 17.0275 9.89318L13.9689 15.3362ZM13.9689 15.3362C14.2522 13.7264 14.7749 12.4091 15.528 11.3742L15.5394 11.3586L15.5399 11.3579L15.552 11.3414C15.5523 11.341 15.5526 11.3406 15.553 11.3401C15.9655 10.7946 16.448 10.3189 17.001 9.91256L17.0271 9.89351L13.9689 15.3362ZM46.4038 16.794L46.4041 16.7948C49.2707 23.0577 50.1407 29.8711 49.008 37.2423C47.8226 44.8222 44.8376 50.6268 40.0696 54.6821C34.656 59.2754 27.905 60.597 19.7787 58.6137C12.5398 56.844 7.69241 52.6519 5.20555 46.0284C3.00204 40.1458 2.94403 33.4832 5.05298 26.0282L4.81242 25.9601L5.05299 26.0281C7.10927 18.7561 10.5584 12.9889 15.393 8.71303C20.6938 4.02614 26.307 2.50761 32.2556 4.11269L32.2566 4.11295C38.6141 5.80036 43.3297 10.0155 46.4038 16.794ZM28.311 56.4666L28.3111 56.4671L28.311 56.4666ZM39.1677 52.5329L39.169 52.5317L29.9754 56.5689C31.1414 56.4111 32.228 56.1613 33.235 55.8194L33.3154 56.0562L33.3154 56.0561L33.3522 56.0436L33.3523 56.0436L33.3583 56.0415L33.3583 56.0415C35.4703 55.3184 37.4069 54.1476 39.1677 52.5329Z" fill="#10B48E" stroke="#10B48E" stroke-width="0.5"/>
</svg>
