<svg width="52" height="62" viewBox="0 0 52 62" fill="none" xmlns="http://www.w3.org/2000/svg">
<path d="M27.9079 43.5181C28.575 43.1793 29.178 42.6582 29.7168 41.9546C30.7175 40.5736 31.0382 39.0752 30.679 37.4597C30.3968 39.1013 29.8708 40.4563 29.101 41.5247C28.2543 42.6712 27.1124 43.5181 25.6755 44.0653C26.4453 44.1174 27.1894 43.935 27.9079 43.5181ZM22.1346 35.2708C21.6728 36.0786 21.5188 36.9776 21.6728 37.9678C21.8267 38.958 22.2501 39.7527 22.9429 40.3521C23.6357 40.9514 24.3926 41.1859 25.2137 41.0556C26.0348 40.9253 26.6762 40.4563 27.1381 39.6485C27.6 38.8668 27.7539 37.9808 27.6 36.9906C27.446 36.0004 27.0226 35.2057 26.3298 34.6063C25.6371 33.9809 24.8801 33.7334 24.059 33.8637C23.238 34.02 22.5965 34.4891 22.1346 35.2708ZM14.3985 11.3889C15.938 9.92963 17.6957 8.79611 19.6714 7.98832C21.4675 7.23265 23.533 6.76361 25.868 6.5812L24.2515 6.54212L23.4432 6.5812L22.635 6.65938C21.506 6.81572 20.454 7.06327 19.4789 7.40202C17.4519 8.10558 15.5916 9.25212 13.8981 10.8416C12.3073 12.3269 10.9987 14.0858 9.97235 16.1183C8.97166 18.0727 8.25321 20.1312 7.81701 22.294L8.39433 20.7697L9.01015 19.2453L9.70293 17.7991L10.0878 17.0955L10.4727 16.392C11.6787 14.3855 12.9873 12.7178 14.3985 11.3889ZM12.705 8.3401C18.0164 3.72788 24.6364 2.41196 32.5649 4.39235C39.6468 6.16428 44.4065 10.3726 46.8441 17.0173C48.9994 22.9064 49.0507 29.5642 46.998 36.9906C44.9966 44.2347 41.6353 49.9934 36.9141 54.2669C31.731 58.9573 26.2144 60.4947 20.3642 58.8791C14.1291 57.1854 9.51049 52.951 6.50841 46.176C3.7116 39.9221 2.86486 33.121 3.96819 25.7727C5.12284 18.216 8.03511 12.4051 12.705 8.3401Z" fill="#10B48E" fill-opacity="0.2"/>
<path d="M38.9429 55.8367L38.9429 55.8367C33.0648 61.034 26.5149 62.9208 19.5257 61.0367C12.2582 59.1062 6.94374 54.2512 3.58035 46.8372C3.58033 46.8372 3.58031 46.8371 3.58029 46.8371L3.80796 46.7338L38.9429 55.8367ZM38.9429 55.8367C44.2352 51.1561 47.9313 44.9034 50.1055 37.2141C52.336 29.3292 52.3321 22.0542 49.8818 15.5128L49.8818 15.5126C47.0587 7.99346 41.4574 3.1962 33.3801 1.22153L33.38 1.22151C24.5571 -0.93172 16.8477 0.461859 10.6372 5.73115L10.6369 5.73137L10.6349 5.73309C10.6349 5.7331 10.6349 5.73311 10.6349 5.73312C5.26063 10.304 2.02636 16.7595 0.763225 24.8367L0.763125 24.8373M38.9429 55.8367L0.763125 24.8373M0.763125 24.8373L0.762229 24.8432L1.00933 24.8811L0.763125 24.8373ZM24.2394 6.27823L24.2239 6.28042L24.1932 6.06314L24.2239 6.28042C23.956 6.31823 23.6922 6.36007 23.4324 6.40591L23.4179 6.40846L23.4179 6.40847C23.1512 6.4557 22.8888 6.50716 22.6305 6.56284L22.615 6.5662C22.615 6.5662 22.615 6.5662 22.615 6.5662C21.5227 6.80256 20.5055 7.11463 19.5631 7.5017L19.5631 7.50171L19.5587 7.50352L19.5565 7.50442C17.5439 8.30838 15.7548 9.43587 14.1876 10.8873L14.187 10.8878L14.1843 10.8904L14.1842 10.8904C12.75 12.2106 11.4154 13.8705 10.1821 15.8738L10.182 15.8738L10.1804 15.8766L10.1803 15.8767L10.1786 15.8794L9.38943 17.2889L8.68042 18.7351L8.04849 20.2635L7.45322 21.7992L6.97528 21.6583C7.089 21.1074 7.22112 20.5631 7.37164 20.0253L7.37164 20.0253L7.37295 20.0206L7.37296 20.0206C7.52496 19.4779 7.6957 18.942 7.88517 18.4128L7.88518 18.4128L7.89293 18.3912C8.07836 17.8749 8.28162 17.365 8.50271 16.8616L8.51341 16.8373C8.62405 16.5861 8.73912 16.3366 8.85863 16.0887C8.97627 15.8446 9.09821 15.6022 9.22445 15.3613C9.22456 15.3611 9.22468 15.3608 9.22479 15.3606L9.22769 15.355L9.44976 15.4698L9.22769 15.355L9.23885 15.3335L9.23887 15.3334L9.46077 15.4486C10.5183 13.4099 11.8646 11.6447 13.4995 10.153L24.2394 6.27823ZM24.2394 6.27823C24.2394 6.27823 24.2395 6.27822 24.2395 6.27822L24.2394 6.27823ZM38.5311 47.1638L39.021 47.1516C39.4089 48.8562 39.0594 50.4424 37.9843 51.8921L37.9801 51.8978L37.98 51.8977L37.966 51.9155L37.9656 51.916L37.96 51.9231L37.7639 51.7681L37.96 51.9232C37.391 52.6426 36.7491 53.185 36.0325 53.5418C35.2529 53.9825 34.4381 54.1786 33.593 54.1227L33.5223 53.6389C34.2501 53.3681 34.8997 53.0237 35.4725 52.6068L38.5311 47.1638ZM38.5311 47.1638C38.2478 48.7736 37.7251 50.0909 36.972 51.1258L36.9606 51.1414L36.9601 51.1421L36.948 51.1586C36.9477 51.159 36.9474 51.1594 36.947 51.1599C36.5345 51.7054 36.052 52.1811 35.499 52.5874L35.4729 52.6065L38.5311 47.1638ZM6.09624 45.706L6.09588 45.7052C3.22926 39.4423 2.35929 32.6289 3.49197 25.2577C4.6774 17.6778 7.66235 11.8732 12.4304 7.81788C17.844 3.22462 24.595 1.90301 32.7213 3.88625C39.9602 5.65596 44.8076 9.84813 47.2945 16.4716C49.498 22.3542 49.556 29.0168 47.447 36.4718L47.6876 36.5399L47.447 36.4719C45.3907 43.7439 41.9416 49.5111 37.107 53.787C31.8062 58.4739 26.193 59.9924 20.2444 58.3873L20.2434 58.387C13.8859 56.6996 9.17033 52.4845 6.09624 45.706ZM24.189 6.03336L24.1889 6.03288L24.189 6.03336ZM13.3323 9.96707L13.331 9.96831L22.5246 5.93115C21.3586 6.08892 20.272 6.33874 19.265 6.68059L19.1846 6.44384L19.1846 6.44386L19.1478 6.4564L19.1477 6.45641L19.1417 6.45846L19.1417 6.45847C17.0297 7.18158 15.0931 8.35242 13.3323 9.96707Z" fill="#10B48E" stroke="#10B48E" stroke-width="0.5"/>
<ellipse cx="25.5" cy="39" rx="6" ry="6.5" fill="#C2E3DB"/>
</svg>
