<svg width="53" height="62" viewBox="0 0 53 62" fill="none" xmlns="http://www.w3.org/2000/svg">
<path d="M28.4079 43.5181C29.075 43.1793 29.678 42.6582 30.2168 41.9546C31.2175 40.5736 31.5382 39.0752 31.179 37.4597C30.8968 39.1013 30.3708 40.4563 29.601 41.5247C28.7543 42.6712 27.6124 43.5181 26.1755 44.0653C26.9453 44.1174 27.6894 43.935 28.4079 43.5181ZM22.6346 35.2708C22.1728 36.0786 22.0188 36.9776 22.1728 37.9678C22.3267 38.958 22.7501 39.7527 23.4429 40.3521C24.1357 40.9514 24.8926 41.1859 25.7137 41.0556C26.5348 40.9253 27.1762 40.4563 27.6381 39.6485C28.1 38.8668 28.2539 37.9808 28.1 36.9906C27.946 36.0004 27.5226 35.2057 26.8298 34.6063C26.1371 33.9809 25.3801 33.7334 24.559 33.8637C23.738 34.02 23.0965 34.4891 22.6346 35.2708ZM14.8985 11.3889C16.438 9.92963 18.1957 8.79611 20.1714 7.98832C21.9675 7.23265 24.033 6.76361 26.368 6.5812L24.7515 6.54212L23.9432 6.5812L23.135 6.65938C22.006 6.81572 20.954 7.06327 19.9789 7.40202C17.9519 8.10558 16.0916 9.25212 14.3981 10.8416C12.8073 12.3269 11.4987 14.0858 10.4724 16.1183C9.47166 18.0727 8.75321 20.1312 8.31701 22.294L8.89433 20.7697L9.51015 19.2453L10.2029 17.7991L10.5878 17.0955L10.9727 16.392C12.1787 14.3855 13.4873 12.7178 14.8985 11.3889ZM13.205 8.3401C18.5164 3.72788 25.1364 2.41196 33.0649 4.39235C40.1468 6.16428 44.9065 10.3726 47.3441 17.0173C49.4994 22.9064 49.5507 29.5642 47.498 36.9906C45.4966 44.2347 42.1353 49.9934 37.4141 54.2669C32.231 58.9573 26.7144 60.4947 20.8642 58.8791C14.6291 57.1854 10.0105 52.951 7.00841 46.176C4.2116 39.9221 3.36486 33.121 4.46819 25.7727C5.62284 18.216 8.53511 12.4051 13.205 8.3401Z" fill="#7BB8C0" fill-opacity="0.4"/>
<path d="M6.59588 45.7052L6.59624 45.706C9.67033 52.4845 14.3859 56.6996 20.7434 58.387L20.7444 58.3873C26.693 59.9924 32.3062 58.4739 37.607 53.787C42.4416 49.5112 45.8907 43.7439 47.947 36.4719L48.1876 36.5399L47.947 36.4718C50.056 29.0168 49.998 22.3542 47.7945 16.4716C45.3076 9.84813 40.4602 5.65596 33.2213 3.88625C25.0951 1.90304 18.3442 3.22459 12.9306 7.81769L6.59588 45.7052ZM6.59588 45.7052C3.72924 39.4422 2.85928 32.6289 3.99199 25.2576C5.17743 17.6777 8.16237 11.8732 12.9304 7.81788L6.59588 45.7052ZM39.4429 55.8367L39.4429 55.8367C33.5647 61.0342 27.0147 62.9209 20.0253 61.0366C12.758 59.106 7.44367 54.251 4.08035 46.8372C4.08033 46.8372 4.08031 46.8371 4.08029 46.8371L4.30796 46.7338L39.4429 55.8367ZM39.4429 55.8367C44.7352 51.1561 48.4313 44.9034 50.6055 37.2141C52.836 29.3292 52.8321 22.0542 50.3818 15.5128L50.3818 15.5126C47.5587 7.99346 41.9574 3.1962 33.8801 1.22153L33.88 1.22151C25.0571 -0.93172 17.3477 0.461859 11.1372 5.73115L11.1369 5.73138L11.1349 5.73309C11.1349 5.7331 11.1349 5.73312 11.1349 5.73313C5.76063 10.304 2.52636 16.7595 1.26323 24.8367L1.26312 24.8373M39.4429 55.8367L1.26312 24.8373M1.26312 24.8373L1.26223 24.8432L1.50933 24.8811L1.26312 24.8373ZM9.18042 18.7351L8.54849 20.2635L7.95322 21.7992L7.47528 21.6583C7.589 21.1074 7.72112 20.5631 7.87164 20.0253L7.87165 20.0252L7.87295 20.0206L8.08354 20.0796L7.87295 20.0206C8.02496 19.4779 8.1957 18.942 8.38517 18.4128L8.39293 18.3912C8.57836 17.8749 8.78162 17.365 9.00272 16.8616L9.01341 16.8373C9.12405 16.5861 9.23912 16.3366 9.35863 16.0887C9.47628 15.8446 9.59822 15.6021 9.72447 15.3612C9.72458 15.361 9.72468 15.3608 9.72479 15.3606L9.72768 15.355L9.7277 15.355L9.73885 15.3335C9.73885 15.3335 9.73885 15.3334 9.73886 15.3334C10.8094 13.2697 12.1734 11.4807 13.8309 9.96839C13.8309 9.96837 13.8309 9.96835 13.831 9.96833C13.831 9.96832 13.831 9.96831 13.831 9.96831L13.8323 9.96707C15.5931 8.35242 17.5297 7.18158 19.6417 6.45847L19.6417 6.45846L19.6477 6.45641L19.6478 6.45639L19.6846 6.44386L19.6847 6.44384L19.765 6.68059L9.18042 18.7351ZM9.18042 18.7351L9.88944 17.2889L10.6786 15.8794L10.6803 15.8766L10.6804 15.8766L10.6821 15.8738C11.9154 13.8705 13.25 12.2106 14.6842 10.8904L14.6843 10.8904L14.687 10.8878L14.6876 10.8873C16.2548 9.43587 18.0439 8.30838 20.0565 7.50442L20.0587 7.50351L20.0631 7.5017L19.981 7.30181L20.0631 7.5017C21.0055 7.11463 22.0227 6.80256 23.115 6.5662L23.0621 6.32185L23.115 6.56619L23.1305 6.56284L23.1305 6.56284C23.3888 6.50716 23.6512 6.4557 23.9179 6.40847L23.9179 6.40846L23.9323 6.40592L23.9323 6.40591C24.1922 6.36007 24.456 6.31823 24.7239 6.28042L24.6932 6.06314L24.7239 6.28042L24.7394 6.27823C24.7394 6.27823 24.7395 6.27822 24.7395 6.27822L9.18042 18.7351ZM34.093 54.1227L34.0223 53.6389C34.7502 53.368 35.3998 53.0237 35.9727 52.6067C35.9728 52.6066 35.9729 52.6066 35.9729 52.6065L35.999 52.5874C36.552 52.1811 37.0345 51.7054 37.447 51.1599C37.4473 51.1595 37.4477 51.159 37.448 51.1586L37.4601 51.1421L37.4606 51.1414L37.472 51.1258L34.093 54.1227ZM34.093 54.1227C34.9381 54.1786 35.7529 53.9825 36.5325 53.5418C37.2491 53.185 37.891 52.6426 38.46 51.9232L38.46 51.9231M34.093 54.1227L38.46 51.9231M38.46 51.9231L38.4657 51.916L38.466 51.9155M38.46 51.9231L38.466 51.9155M38.466 51.9155L38.48 51.8977L38.4801 51.8978M38.466 51.9155L38.4801 51.8978M38.4801 51.8978L38.4843 51.8921M38.4801 51.8978L38.4843 51.8921M38.4843 51.8921C39.5594 50.4424 39.9089 48.8562 39.521 47.1516L39.0311 47.1638M38.4843 51.8921L39.0311 47.1638M39.0311 47.1638C38.7478 48.7735 38.2252 50.0907 37.4722 51.1255L39.0311 47.1638ZM28.3995 36.5006C28.311 35.9447 27.9562 35.3048 27.647 34.8264C27.4891 34.5821 27.3365 34.3701 27.2234 34.2193C27.1668 34.1438 27.12 34.0833 27.087 34.0415C27.0706 34.0206 27.0576 34.0043 27.0486 33.9932L27.0382 33.9803L27.0354 33.9768L27.0345 33.9758L27.0343 33.9755L27.0342 33.9754L26.8408 34.1338L26.6474 34.2922L26.6475 34.2923L26.6479 34.2928L26.65 34.2954L26.659 34.3065C26.6669 34.3164 26.6789 34.3314 26.6942 34.3509C26.725 34.3899 26.7694 34.4472 26.8234 34.5192C26.9314 34.6633 27.077 34.8656 27.2271 35.0978C27.5341 35.5727 27.8352 36.1359 27.9057 36.5792L28.3995 36.5006ZM21.7839 37.5653C21.9515 38.6186 22.4162 39.4763 23.1812 40.123L23.504 39.7412C22.838 39.1782 22.4281 38.4319 22.2777 37.4867L21.7839 37.5653ZM25.3037 38.1775L25.3005 38.178L25.3772 38.6721L25.3804 38.6716L25.3037 38.1775ZM35.834 49.5454C36.3447 48.7009 36.5113 47.746 36.344 46.6945L35.8502 46.7731C36.0009 47.7201 35.8496 48.5534 35.4062 49.2866L35.834 49.5454Z" fill="#7BB8C0" stroke="#7BB8C0" stroke-width="0.5"/>
<ellipse cx="26" cy="39" rx="6" ry="6.5" fill="#C0D9DC"/>
</svg>
