<svg width="53" height="63" viewBox="0 0 53 63" fill="none" xmlns="http://www.w3.org/2000/svg">
<path d="M28.4079 44.0181C29.075 43.6793 29.678 43.1582 30.2168 42.4546C31.2175 41.0736 31.5382 39.5752 31.179 37.9597C30.8968 39.6013 30.3708 40.9563 29.601 42.0247C28.7543 43.1712 27.6124 44.0181 26.1755 44.5653C26.9453 44.6174 27.6894 44.435 28.4079 44.0181ZM22.6346 35.7708C22.1728 36.5786 22.0188 37.4776 22.1728 38.4678C22.3267 39.458 22.7501 40.2527 23.4429 40.8521C24.1357 41.4514 24.8926 41.6859 25.7137 41.5556C26.5348 41.4253 27.1762 40.9563 27.6381 40.1485C28.1 39.3668 28.2539 38.4808 28.1 37.4906C27.946 36.5004 27.5226 35.7057 26.8298 35.1063C26.1371 34.4809 25.3801 34.2334 24.559 34.3637C23.738 34.52 23.0965 34.9891 22.6346 35.7708ZM14.8985 11.8889C16.438 10.4296 18.1957 9.29611 20.1714 8.48832C21.9675 7.73265 24.033 7.26361 26.368 7.0812L24.7515 7.04212L23.9432 7.0812L23.135 7.15938C22.006 7.31572 20.954 7.56327 19.9789 7.90202C17.9519 8.60558 16.0916 9.75212 14.3981 11.3416C12.8073 12.8269 11.4987 14.5858 10.4724 16.6183C9.47166 18.5727 8.75321 20.6312 8.31701 22.794L8.89433 21.2697L9.51015 19.7453L10.2029 18.2991L10.5878 17.5955L10.9727 16.892C12.1787 14.8855 13.4873 13.2178 14.8985 11.8889ZM13.205 8.8401C18.5164 4.22788 25.1364 2.91196 33.0649 4.89235C40.1468 6.66428 44.9065 10.8726 47.3441 17.5173C49.4994 23.4064 49.5507 30.0642 47.498 37.4906C45.4966 44.7347 42.1353 50.4934 37.4141 54.7669C32.231 59.4573 26.7144 60.9947 20.8642 59.3791C14.6291 57.6854 10.0105 53.451 7.00841 46.676C4.2116 40.4221 3.36486 33.621 4.46819 26.2727C5.62284 18.716 8.53511 12.9051 13.205 8.8401Z" fill="#FDE3EE"/>
<path d="M39.4429 56.3367L39.4429 56.3367C33.5648 61.534 27.0149 63.4208 20.0257 61.5367C12.7582 59.6062 7.44374 54.7512 4.08035 47.3372C4.08033 47.3372 4.08031 47.3371 4.08029 47.3371L4.30796 47.2338L39.4429 56.3367ZM39.4429 56.3367C44.7352 51.6561 48.4313 45.4034 50.6055 37.7141C52.836 29.8292 52.8321 22.5542 50.3818 16.0128L50.3818 16.0126C47.5587 8.49346 41.9574 3.6962 33.8801 1.72153L33.88 1.72151C25.0571 -0.43172 17.3477 0.961859 11.1372 6.23115L11.1369 6.23137L11.1349 6.23309C11.1349 6.2331 11.1349 6.23311 11.1349 6.23312C5.76063 10.804 2.52636 17.2595 1.26323 25.3367L1.26312 25.3373M39.4429 56.3367L1.26312 25.3373M1.26312 25.3373L1.26223 25.3432L1.50933 25.3811L1.26312 25.3373ZM24.7394 6.77823L24.7239 6.78042L24.6932 6.56314L24.7239 6.78042C24.456 6.81823 24.1922 6.86007 23.9324 6.90591L23.9179 6.90846L23.9179 6.90847C23.6512 6.9557 23.3888 7.00716 23.1305 7.06284L23.115 7.0662C23.115 7.0662 23.115 7.0662 23.115 7.0662C22.0227 7.30256 21.0055 7.61463 20.0631 8.0017L20.0631 8.00171L20.0587 8.00352L20.0565 8.00442C18.0439 8.80838 16.2548 9.93587 14.6876 11.3873L14.687 11.3878L14.6843 11.3904L14.6842 11.3904C13.25 12.7106 11.9154 14.3705 10.6821 16.3738L10.682 16.3738L10.6804 16.3766L10.6803 16.3767L10.6786 16.3794L9.88943 17.7889L9.18042 19.2351L8.54849 20.7635L7.95322 22.2992L7.47528 22.1583C7.589 21.6074 7.72112 21.0631 7.87164 20.5253L7.87164 20.5253L7.87295 20.5206L7.87296 20.5206C8.02496 19.9779 8.1957 19.442 8.38517 18.9128L8.38518 18.9128L8.39293 18.8912C8.57836 18.3749 8.78162 17.865 9.00271 17.3616L9.01341 17.3373C9.12405 17.0861 9.23912 16.8366 9.35863 16.5887C9.47627 16.3446 9.59821 16.1022 9.72445 15.8613C9.72456 15.8611 9.72468 15.8608 9.72479 15.8606L9.72769 15.855L9.94976 15.9698L9.72769 15.855L9.73885 15.8335L9.73887 15.8334L9.96077 15.9486C11.0183 13.9099 12.3646 12.1447 13.9995 10.653L24.7394 6.77823ZM24.7394 6.77823C24.7394 6.77823 24.7395 6.77822 24.7395 6.77822L24.7394 6.77823ZM39.0311 47.6638L39.521 47.6516C39.9089 49.3562 39.5594 50.9424 38.4843 52.3921L38.4801 52.3978L38.48 52.3977L38.466 52.4155L38.4656 52.416L38.46 52.4231L38.2639 52.2681L38.46 52.4232C37.891 53.1426 37.2491 53.685 36.5325 54.0418C35.7529 54.4825 34.9381 54.6786 34.093 54.6227L34.0223 54.1389C34.7501 53.8681 35.3997 53.5237 35.9725 53.1068L39.0311 47.6638ZM39.0311 47.6638C38.7478 49.2736 38.2251 50.5909 37.472 51.6258L37.4606 51.6414L37.4601 51.6421L37.448 51.6586C37.4477 51.659 37.4474 51.6594 37.447 51.6599C37.0345 52.2054 36.552 52.6811 35.999 53.0874L35.9729 53.1065L39.0311 47.6638ZM6.59624 46.206L6.59588 46.2052C3.72926 39.9423 2.85929 33.1289 3.99197 25.7577C5.1774 18.1778 8.16235 12.3732 12.9304 8.31788C18.344 3.72462 25.095 2.40301 33.2213 4.38625C40.4602 6.15596 45.3076 10.3481 47.7945 16.9716C49.998 22.8542 50.056 29.5168 47.947 36.9718L48.1876 37.0399L47.947 36.9719C45.8907 44.2439 42.4416 50.0111 37.607 54.287C32.3062 58.9739 26.693 60.4924 20.7444 58.8873L20.7434 58.887C14.3859 57.1996 9.67033 52.9845 6.59624 46.206ZM24.689 6.53336L24.6889 6.53288L24.689 6.53336ZM13.8323 10.4671L13.831 10.4683L23.0246 6.43115C21.8586 6.58892 20.772 6.83874 19.765 7.18059L19.6846 6.94384L19.6846 6.94386L19.6478 6.9564L19.6477 6.95641L19.6417 6.95846L19.6417 6.95847C17.5297 7.68158 15.5931 8.85242 13.8323 10.4671Z" fill="#F775A9" stroke="#F775A9" stroke-width="0.5"/>
<ellipse cx="26" cy="39.5" rx="6" ry="6.5" fill="#FDE3EE"/>
</svg>
