<svg width="52" height="63" viewBox="0 0 52 63" fill="none" xmlns="http://www.w3.org/2000/svg">
<path d="M24.0921 18.9819C23.425 19.3207 22.822 19.8418 22.2832 20.5454C21.2825 21.9264 20.9618 23.4248 21.321 25.0403C21.6032 23.3987 22.1292 22.0437 22.899 20.9753C23.7457 19.8288 24.8876 18.9819 26.3245 18.4347C25.5547 18.3826 24.8106 18.565 24.0921 18.9819ZM29.8654 27.2292C30.3272 26.4214 30.4812 25.5224 30.3272 24.5322C30.1733 23.542 29.7499 22.7473 29.0571 22.1479C28.3643 21.5486 27.6074 21.3141 26.7863 21.4444C25.9652 21.5747 25.3238 22.0437 24.8619 22.8515C24.4 23.6332 24.2461 24.5192 24.4 25.5094C24.554 26.4996 24.9774 27.2943 25.6702 27.8937C26.3629 28.5191 27.1199 28.7666 27.941 28.6363C28.762 28.48 29.4035 28.0109 29.8654 27.2292ZM37.6015 51.1111C36.062 52.5704 34.3043 53.7039 32.3286 54.5117C30.5325 55.2674 28.467 55.7364 26.132 55.9188L27.7485 55.9579L28.5568 55.9188L29.365 55.8406C30.494 55.6843 31.546 55.4367 32.5211 55.098C34.5481 54.3944 36.4084 53.2479 38.1019 51.6584C39.6927 50.1731 41.0013 48.4142 42.0276 46.3817C43.0283 44.4273 43.7468 42.3688 44.183 40.206L43.6057 41.7303L42.9899 43.2547L42.2971 44.7009L41.9122 45.4045L41.5273 46.108C40.3213 48.1145 39.0127 49.7822 37.6015 51.1111ZM39.295 54.1599C33.9836 58.7721 27.3636 60.088 19.4351 58.1077C12.3532 56.3357 7.59352 52.1274 5.15593 45.4827C3.00059 39.5936 2.94928 32.9358 5.00198 25.5094C7.00337 18.2653 10.3647 12.5066 15.0859 8.23308C20.269 3.54269 25.7856 2.00528 31.6358 3.62086C37.8709 5.31461 42.4895 9.549 45.4916 16.324C48.2884 22.5779 49.1351 29.379 48.0318 36.7273C46.8772 44.284 43.9649 50.0949 39.295 54.1599Z" fill="#10B48E" fill-opacity="0.6"/>
<path d="M13.0571 6.66335L13.0571 6.66332C18.9352 1.46595 25.4851 -0.420826 32.4743 1.46329C39.7418 3.39381 45.0563 8.2488 48.4196 15.6628C48.4197 15.6628 48.4197 15.6629 48.4197 15.6629L48.192 15.7662L13.0571 6.66335ZM13.0571 6.66335C7.76476 11.3439 4.06874 17.5966 1.8945 25.2859C-0.336025 33.1708 -0.332104 40.4458 2.11816 46.9872L2.11823 46.9874C4.94133 54.5065 10.5426 59.3038 18.6199 61.2785L18.62 61.2785C27.4429 63.4317 35.1523 62.0381 41.3628 56.7689L41.3631 56.7686L41.3651 56.7669C41.3651 56.7669 41.3651 56.7669 41.3651 56.7669C46.7394 52.196 49.9736 45.7405 51.2368 37.6633L51.2369 37.6627M13.0571 6.66335L51.2369 37.6627M51.2369 37.6627L51.2378 37.6568L50.9907 37.6189L51.2369 37.6627ZM27.7606 56.2218L27.7761 56.2196L27.8068 56.4369L27.7761 56.2196C28.044 56.1818 28.3078 56.1399 28.5676 56.0941L28.5821 56.0915L28.5821 56.0915C28.8488 56.0443 29.1112 55.9928 29.3695 55.9372L29.385 55.9338C29.385 55.9338 29.385 55.9338 29.385 55.9338C30.4773 55.6974 31.4945 55.3854 32.4369 54.9983L32.4369 54.9983L32.4413 54.9965L32.4435 54.9956C34.4561 54.1916 36.2452 53.0641 37.8124 51.6127L37.813 51.6122L37.8157 51.6096L37.8158 51.6096C39.25 50.2894 40.5846 48.6295 41.8179 46.6262L41.818 46.6262L41.8196 46.6234L41.8197 46.6233L41.8214 46.6206L42.6106 45.2111L43.3196 43.7649L43.9515 42.2365L44.5468 40.7008L45.0247 40.8417C44.911 41.3926 44.7789 41.9369 44.6284 42.4747L44.6284 42.4747L44.6271 42.4794L44.627 42.4794C44.475 43.0221 44.3043 43.558 44.1148 44.0872L44.1148 44.0872L44.1071 44.1088C43.9216 44.6251 43.7184 45.135 43.4973 45.6384L43.4866 45.6627C43.376 45.9139 43.2609 46.1634 43.1414 46.4113C43.0237 46.6554 42.9018 46.8978 42.7756 47.1387C42.7754 47.1389 42.7753 47.1392 42.7752 47.1394L42.7723 47.145L42.5502 47.0302L42.7723 47.145L42.7611 47.1665L42.7611 47.1666L42.5392 47.0514C41.4817 49.0901 40.1354 50.8553 38.5005 52.347L27.7606 56.2218ZM27.7606 56.2218C27.7606 56.2218 27.7605 56.2218 27.7605 56.2218L27.7606 56.2218ZM13.4689 15.3362L12.979 15.3484C12.5911 13.6438 12.9406 12.0576 14.0157 10.6079L14.0199 10.6022L14.02 10.6023L14.034 10.5845L14.0344 10.584L14.04 10.5769L14.2361 10.7319L14.04 10.5768C14.609 9.85744 15.2509 9.31501 15.9675 8.95815C16.7471 8.51749 17.5619 8.32145 18.407 8.37735L18.4777 8.86111C17.7499 9.13193 17.1003 9.47628 16.5275 9.89318L13.4689 15.3362ZM13.4689 15.3362C13.7522 13.7264 14.2749 12.4091 15.028 11.3742L15.0394 11.3586L15.0399 11.3579L15.052 11.3414C15.0523 11.341 15.0526 11.3406 15.053 11.3401C15.4655 10.7946 15.948 10.3189 16.501 9.91256L16.5271 9.89351L13.4689 15.3362ZM45.9038 16.794L45.9041 16.7948C48.7707 23.0577 49.6407 29.8711 48.508 37.2423C47.3226 44.8222 44.3376 50.6268 39.5696 54.6821C34.156 59.2754 27.405 60.597 19.2787 58.6137C12.0398 56.844 7.19241 52.6519 4.70555 46.0284C2.50204 40.1458 2.44403 33.4832 4.55298 26.0282L4.31242 25.9601L4.55299 26.0281C6.60927 18.7561 10.0584 12.9889 14.893 8.71303C20.1938 4.02614 25.807 2.50761 31.7556 4.11269L31.7566 4.11295C38.1141 5.80036 42.8297 10.0155 45.9038 16.794ZM27.811 56.4666L27.8111 56.4671L27.811 56.4666ZM38.6677 52.5329L38.669 52.5317L29.4754 56.5689C30.6414 56.4111 31.728 56.1613 32.735 55.8194L32.8154 56.0562L32.8154 56.0561L32.8522 56.0436L32.8523 56.0436L32.8583 56.0415L32.8583 56.0415C34.9703 55.3184 36.9069 54.1476 38.6677 52.5329Z" fill="#10B48E" stroke="#10B48E" stroke-width="0.5"/>
<ellipse cx="26.5" cy="23.5" rx="6" ry="6.5" transform="rotate(-180 26.5 23.5)" fill="#6ACCB5"/>
</svg>
