<svg width="78" height="26" viewBox="0 0 78 26" fill="none" xmlns="http://www.w3.org/2000/svg">
<path d="M19.0694 15.3489C18.8081 15.2213 17.1102 14.4554 16.8489 14.3278C16.5877 14.2001 16.3265 14.2001 16.0653 14.4554C15.8041 14.7107 15.2816 15.4766 15.0204 15.7318C14.8898 15.9871 14.6285 15.9871 14.3673 15.8595C13.453 15.4766 12.5388 14.966 11.7551 14.3278C11.102 13.6896 10.449 12.9237 9.92651 12.1579C9.7959 11.9026 9.92651 11.6473 10.0571 11.5197C10.1877 11.392 10.3183 11.1367 10.5796 11.0091C10.7102 10.8815 10.8408 10.6262 10.8408 10.4985C10.9714 10.3709 10.9714 10.1156 10.8408 9.98796C10.7102 9.86032 10.0571 8.32862 9.7959 7.69041C9.66529 6.79692 9.40406 6.79692 9.14284 6.79692H8.48978C8.22856 6.79692 7.83672 7.0522 7.70611 7.17985C6.92244 7.9457 6.5306 8.83919 6.5306 9.86032C6.66121 11.0091 7.05305 12.1579 7.83672 13.179C9.27345 15.2213 11.102 16.8806 13.3224 17.9018C13.9755 18.157 14.4979 18.4123 15.151 18.54C15.8041 18.7952 16.4571 18.7952 17.2408 18.6676C18.1551 18.54 18.9387 17.9017 19.4612 17.1359C19.7224 16.6253 19.7224 16.1148 19.5918 15.6042L19.0694 15.3489ZM22.3347 3.73352C17.2408 -1.24451 9.01223 -1.24451 3.91836 3.73352C-0.261224 7.81806 -1.0449 14.0725 1.82857 19.0505L0 25.5603L6.92244 23.7733C8.88162 24.7944 10.9714 25.305 13.0612 25.305C20.2449 25.305 25.9918 19.6887 25.9918 12.6684C26.1224 9.34975 24.6857 6.15871 22.3347 3.73352ZM18.8081 21.6034C17.1102 22.6245 15.151 23.2627 13.0612 23.2627C11.102 23.2627 9.27345 22.7521 7.5755 21.8586L7.18366 21.6034L3.13469 22.6245L4.17958 18.7952L3.91836 18.4123C0.783672 13.3066 2.35102 6.92456 7.44488 3.73352C12.5388 0.542478 19.0694 2.20182 22.204 7.0522C25.3387 12.0302 23.902 18.54 18.8081 21.6034Z" fill="#7BB8C0"/>
<path d="M77.2608 1.4431C76.675 0.974131 75.8699 0.85345 75.1644 1.12883L51.275 10.4401C50.2241 10.8577 49.7229 12.0187 50.1554 13.0331C50.3791 13.5578 50.8245 13.965 51.3791 14.1523L56.5328 15.882L59.3258 24.7973C59.3314 24.8154 59.3487 24.8265 59.3559 24.8439C59.3848 24.915 59.427 24.9805 59.4803 25.0369C59.5002 25.0596 59.5218 25.0809 59.545 25.1005C59.6145 25.1563 59.6953 25.1976 59.7823 25.2216C59.7955 25.2254 59.8044 25.2368 59.8179 25.2398L59.8257 25.2395L59.8296 25.241C59.8741 25.2506 59.9195 25.2552 59.965 25.2549C60.0245 25.2528 60.0835 25.2429 60.1402 25.2254C60.1512 25.2225 60.1622 25.2233 60.173 25.2198C60.2697 25.1869 60.3571 25.1328 60.4283 25.0616C60.4366 25.0536 60.4493 25.0521 60.4572 25.0437L64.4755 20.7633L70.3375 25.1455C70.6937 25.4143 71.1328 25.5604 71.5849 25.5603C72.5628 25.5602 73.4068 24.8989 73.6083 23.9751L77.9587 3.35639C78.1094 2.64315 77.8411 1.90775 77.2608 1.4431ZM60.7841 17.5728L59.8412 21.9968L57.8747 15.7178L67.6279 10.8146L60.9651 17.2472C60.873 17.3362 60.8101 17.4494 60.7841 17.5728ZM72.3024 23.7162C72.2513 23.9531 72.0762 24.1474 71.8402 24.2291C71.6095 24.3147 71.3491 24.2765 71.1553 24.1285L64.8037 19.3805C64.5287 19.1749 64.1362 19.2083 63.9026 19.4572L61.1084 22.4336L62.0498 18.0216L71.6345 8.76689C71.8949 8.51587 71.8954 8.10857 71.6353 7.85715C71.4297 7.65814 71.114 7.61116 70.8558 7.74111L57.0379 14.688L51.8153 12.9354C51.5307 12.845 51.3371 12.5899 51.3336 12.3006C51.3198 12.0092 51.4984 11.7414 51.7789 11.6331L75.6644 2.32306C75.9139 2.22085 76.2019 2.26367 76.4079 2.43369C76.613 2.59349 76.7072 2.85128 76.6514 3.09994L72.3024 23.7162Z" fill="#7BB8C0"/>
</svg>
