<svg width="788" height="347" viewBox="0 0 788 347" fill="none" xmlns="http://www.w3.org/2000/svg">
<path fill-rule="evenodd" clip-rule="evenodd" d="M730.822 59.3719C744.86 62.6589 753.255 75.1416 756.007 96.82C758.592 117.607 755.463 141.766 746.618 169.298C735.106 205.032 724.627 229.986 715.183 244.158C702.083 263.718 686.857 271.01 669.505 266.034C659.366 263.127 652.651 256.928 649.358 247.439C645.844 237.252 646.782 224.228 652.175 208.366C655.402 198.953 656.084 191.605 654.223 186.323C652.736 182.31 649.799 179.674 645.412 178.417C636.443 175.845 630.056 183.772 626.249 202.198C621.029 227.394 608.669 238.672 589.169 236.035C580.352 234.773 573.356 230.287 568.182 222.579C561.713 213.128 558.884 199.815 559.694 182.639C560.733 159.516 564.837 136.005 572.006 112.107C579.427 87.3322 588.822 66.7102 600.191 50.2413C606.022 41.6797 613.041 35.7799 621.249 32.5419C629.903 29.2208 638.373 29.4866 646.658 33.3393C657.101 38.1274 663.607 45.057 666.175 54.1281C668.952 64.3139 666.954 77.7201 660.182 94.3465C657.766 100.195 657.232 105.37 658.579 109.87C659.954 114.274 663.023 117.369 667.785 119.157C672.353 120.889 676.609 120.579 680.553 118.229C685.125 115.531 688.327 110.435 690.159 102.942C694.243 85.7561 699.492 73.7043 705.907 66.787C712.405 59.5772 720.71 57.1055 730.822 59.3719ZM698.721 60.2183C690.579 69.0289 684.874 83.0854 680.695 100.657C679.203 106.74 677.06 108.986 675.605 109.844L675.587 109.855L675.57 109.865C674.359 110.587 673.231 110.81 671.237 110.053L671.206 110.042C668.959 109.198 668.273 108.216 667.89 107.024C667.391 105.302 667.342 102.513 669.18 98.0631L669.189 98.0411L669.198 98.0191C676.266 80.6668 679.182 64.8232 675.569 51.5678L675.556 51.5217L675.543 51.4757C672.031 39.0739 663.142 30.1925 650.738 24.4996C640.03 19.528 628.828 19.2052 617.761 23.4524L617.719 23.4687L617.677 23.4853C607.364 27.5537 598.894 34.8592 592.163 44.7329C580.083 62.2389 570.31 83.8414 562.681 109.31C555.302 133.908 551.048 158.204 549.969 182.18C549.107 200.446 552.009 216.166 560.124 228.044C566.761 237.909 576.129 244.003 587.789 245.672L587.826 245.678L587.864 245.683C599.913 247.313 610.933 244.678 619.626 236.746C627.939 229.16 632.966 217.767 635.782 204.174L635.784 204.168C637.597 195.391 639.765 190.665 641.476 188.542C641.895 188.021 642.187 187.783 642.328 187.687C642.409 187.697 642.539 187.721 642.729 187.775C644.322 188.232 644.739 188.782 645.065 189.63C645.796 191.797 645.94 196.53 642.965 205.209L642.957 205.233C637.232 222.073 635.639 237.527 640.155 250.614L640.16 250.63C644.551 263.286 653.817 271.664 666.821 275.393C677.615 278.488 688.226 277.827 698.144 273.078C707.831 268.438 716.117 260.259 723.272 249.576L723.284 249.557C733.534 234.176 744.346 208.1 755.885 172.284L755.888 172.276C765.01 143.878 768.481 118.238 765.668 95.6184L765.665 95.5941C762.711 72.3172 752.989 54.563 733.041 49.8924L732.996 49.8818L732.951 49.8717C719.717 46.9054 707.756 50.227 698.721 60.2183ZM642.423 187.629C642.426 187.628 642.421 187.631 642.407 187.637C642.416 187.632 642.421 187.63 642.423 187.629ZM642.251 187.68C642.229 187.683 642.217 187.682 642.218 187.681C642.218 187.68 642.229 187.679 642.251 187.68ZM711.278 81.1007C711.294 81.0675 711.31 81.0343 711.326 81.0012C713.378 77.1583 715.588 74.4161 717.958 72.7746C717.976 72.7608 717.995 72.747 718.013 72.7333C719.588 71.551 721.124 70.8586 722.619 70.656C722.624 70.6553 722.629 70.6547 722.635 70.654C722.65 70.6518 722.666 70.6498 722.682 70.6477C724.117 70.4262 725.949 70.4767 728.178 70.7993C726.061 70.0868 724.202 69.7646 722.6 69.8327C722.593 69.8329 722.586 69.8331 722.58 69.8332C722.572 69.8334 722.564 69.8336 722.557 69.8339C720.87 69.882 719.094 70.4233 717.228 71.4575C717.185 71.4836 717.143 71.51 717.101 71.5368C717.083 71.5481 717.065 71.5595 717.047 71.5709C714.421 73.2409 711.873 76.0424 709.405 79.9754C709.391 79.9988 709.377 80.0222 709.363 80.0456C706.352 85.0795 703.643 91.977 701.236 100.738L700.585 103.558L699.83 106.19C699.341 108.266 698.852 109.972 698.363 111.308C698.359 111.32 698.355 111.332 698.351 111.343C698.34 111.373 698.33 111.404 698.319 111.434C697.15 114.739 695.52 117.862 693.43 120.801C693.427 120.804 693.425 120.808 693.422 120.811C693.416 120.82 693.41 120.828 693.404 120.836C691.186 123.871 688.607 126.307 685.666 128.145C685.654 128.152 685.641 128.16 685.629 128.168C682.59 130.06 679.167 131.314 675.358 131.931C678.952 131.907 682.575 131.047 686.226 129.351C689.557 127.668 692.506 125.296 695.072 122.234C695.111 122.189 695.15 122.144 695.188 122.099C695.194 122.093 695.199 122.086 695.205 122.08C697.502 119.409 699.404 116.167 700.911 112.356C700.923 112.322 700.935 112.288 700.947 112.253C700.952 112.241 700.956 112.229 700.96 112.217C701.478 110.748 702.028 109.005 702.609 106.987C702.621 106.943 702.634 106.899 702.647 106.855C702.648 106.85 702.649 106.845 702.651 106.841L703.406 104.209L704.014 101.535C704.017 101.524 704.02 101.514 704.023 101.504C704.033 101.465 704.044 101.427 704.054 101.388C706.329 93.1163 708.73 86.3667 711.259 81.1393C711.265 81.1264 711.272 81.1136 711.278 81.1007ZM622.929 46.0003C622.945 45.9908 622.961 45.9814 622.976 45.972C625.418 44.5099 627.867 43.4989 630.326 42.9392C630.343 42.9353 630.36 42.9314 630.377 42.9275C633.15 42.3032 635.934 42.2529 638.729 42.7765C636.181 41.7293 633.354 41.2878 630.247 41.452C627.433 41.7001 624.66 42.5403 621.928 43.9725C621.872 43.9999 621.816 44.0275 621.76 44.0553C621.755 44.0577 621.75 44.06 621.745 44.0624C616.93 46.4521 612.686 50.2332 609.016 55.406C609.014 55.4086 609.012 55.4111 609.01 55.4137C609.001 55.4267 608.992 55.4397 608.983 55.4527C605.737 60.1307 602.87 65.0106 600.384 70.0923C600.378 70.1043 600.372 70.1163 600.366 70.1282C599.145 72.6267 598.016 75.174 596.978 77.7701C596.971 77.7864 596.965 77.8028 596.958 77.8191C595.911 80.4435 594.957 83.1177 594.097 85.8417L598.116 78.4485L602.386 71.2854C605.544 65.7744 608.528 61.0526 611.338 57.1199C611.343 57.1127 611.349 57.1054 611.354 57.0981C611.357 57.0937 611.36 57.0893 611.363 57.0849C614.723 52.3552 618.575 48.6624 622.92 46.0062C622.923 46.0043 622.926 46.0023 622.929 46.0003Z" fill="#F775A9"/>
<path fill-rule="evenodd" clip-rule="evenodd" d="M353.528 25.1282C368.943 18.4348 389.074 15.7473 413.921 17.0657C442.419 18.5869 465.592 24.0633 483.441 33.4949C492.365 38.2614 498.755 43.535 502.608 49.3157C506.766 55.502 507.831 62.0432 505.803 68.9395C504.282 74.4159 501.036 78.3204 496.067 80.6529C492.315 82.4784 487.143 83.4418 480.551 83.5432L476.443 83.6953L472.336 83.5432H464.426C458.746 83.746 454.791 84.7095 452.56 86.4335C449.213 89.0703 447.641 98.4512 447.844 114.576C448.047 129.687 449.72 147.891 452.864 169.188C458.746 209.551 450.735 231.203 428.829 234.144C416.963 235.666 406.721 231.913 398.1 222.887C389.987 214.369 385.271 203.213 383.953 189.42C383.04 180.293 382.939 169.594 383.649 157.323C384.054 148.702 384.916 138.257 386.235 125.985C388.973 101.849 389.936 88.6647 389.125 86.4335C387.705 82.6812 383.902 80.1458 377.716 78.8274C375.383 78.3204 372.341 77.9147 368.588 77.6104L358.548 76.6977C350.334 75.785 344.198 74.1116 340.142 71.6777C334.564 68.331 331.471 62.956 330.862 55.5527C329.645 42.3687 337.201 32.2272 353.528 25.1282ZM351.551 40.7968C351.6 40.7649 351.649 40.7331 351.698 40.7014C351.713 40.6923 351.727 40.6832 351.741 40.6741C355.775 38.0907 361.086 35.9005 367.676 34.1034C367.682 34.1015 367.688 34.0997 367.695 34.0978C367.725 34.0889 367.755 34.0801 367.785 34.0712C372.232 32.766 377.976 31.6105 385.018 30.6046C390.291 29.7933 396.224 29.0834 402.816 28.4749C396.599 27.878 390.553 27.7934 384.677 28.2211C384.669 28.2217 384.66 28.2223 384.651 28.2229C378.555 28.6682 372.643 29.6649 366.915 31.2131C366.907 31.2157 366.898 31.2183 366.89 31.2209C366.87 31.227 366.85 31.2331 366.829 31.2392C359.872 33.3635 354.374 35.8902 350.334 38.8192C350.318 38.8308 350.303 38.8424 350.288 38.854C350.286 38.8557 350.283 38.8574 350.281 38.8591C347.432 41.0286 345.349 43.246 344.033 45.5113C344.019 45.5345 344.006 45.5577 343.992 45.5809C343.976 45.6088 343.96 45.6368 343.945 45.6647C342.322 48.5043 341.866 51.4961 342.576 54.6399C342.576 51.2933 343.438 48.555 345.162 46.4253C345.173 46.41 345.184 46.3946 345.195 46.3793C345.196 46.3774 345.198 46.3756 345.199 46.3737C346.52 44.5645 348.637 42.7055 351.551 40.7968ZM321.163 56.4001C320.357 47.5558 322.532 39.3245 327.809 32.2421C332.932 25.3652 340.527 20.1647 349.646 16.1997L349.651 16.1979C366.953 8.6851 388.75 5.98055 414.437 7.34353L414.44 7.34369C443.803 8.91112 468.489 14.5828 487.989 24.8869L488.009 24.897L488.028 24.9072C497.759 30.1049 505.639 36.3181 510.697 43.8977C516.382 52.3619 518.014 61.8574 515.163 71.6185C512.909 79.6618 507.848 85.8578 500.264 89.4379C494.74 92.1087 488.02 93.1559 480.809 93.2762L476.443 93.4379L472.166 93.2791H464.607C462.277 93.3703 460.618 93.6058 459.504 93.8772C459.385 93.9061 459.277 93.9344 459.178 93.9617C458.963 94.6328 458.711 95.636 458.473 97.0558C457.826 100.916 457.481 106.631 457.579 114.454C457.775 128.992 459.392 146.737 462.496 167.766L462.498 167.784C465.519 188.514 465.251 205.962 460.398 219.078C457.912 225.797 454.143 231.588 448.836 235.951C443.507 240.331 437.136 242.852 430.124 243.794L430.096 243.798L430.067 243.801C414.98 245.736 401.708 240.761 391.06 229.612L391.05 229.602C381.181 219.24 375.754 205.921 374.263 190.369C373.289 180.613 373.2 169.404 373.926 156.812C374.345 147.945 375.226 137.311 376.555 124.945L376.558 124.917L376.561 124.888C377.925 112.861 378.833 103.683 379.301 97.2853C379.536 94.0717 379.649 91.6929 379.665 90.0645C379.667 89.946 379.667 89.8343 379.667 89.7292C379.048 89.3512 377.831 88.8064 375.687 88.3494L375.667 88.3453L375.648 88.3411C373.906 87.9624 371.338 87.6012 367.802 87.3144L367.754 87.3106L357.57 86.3847L357.473 86.374C348.756 85.4054 340.973 83.5304 335.133 80.0261C326.468 74.8274 321.997 66.397 321.163 56.4001ZM379.621 88.3438C379.622 88.3442 379.627 88.3798 379.633 88.4559C379.623 88.3829 379.62 88.3434 379.621 88.3438ZM459.533 93.063C459.534 93.0636 459.525 93.0804 459.507 93.1105C459.523 93.0775 459.533 93.0625 459.533 93.063Z" fill="#FFC228"/>
<path fill-rule="evenodd" clip-rule="evenodd" d="M26.5066 118.426C24.6018 93.0191 30.9325 77.7523 45.4989 72.6259C54.0074 69.5531 62.1589 71.8578 69.9534 79.54C75.8375 85.3433 81.8854 94.8451 88.0971 108.045C90.1069 112.111 92.5708 117.576 95.4888 124.441L97.1016 128.41L98.8186 132.19C100.047 135.003 101.087 137.342 101.939 139.208C106.462 149.095 110.13 154.162 112.944 154.41C115.118 154.631 117.038 152.498 118.705 148.01C119.289 146.366 120.032 143.99 120.935 140.883L121.455 138.835L122.122 136.744L123.413 132.418C125.718 125.004 128.213 119.172 130.898 114.921C134.584 109.011 139.212 105.099 144.782 103.185C149.642 101.37 154.964 101.901 160.748 104.779C164.86 106.976 169.774 110.684 175.49 115.902L178.962 119.18L182.204 122.206C184.699 124.656 186.707 126.507 188.227 127.759C192.479 131.182 195.796 132.446 198.177 131.552C200.558 130.659 201.249 124.974 200.25 114.5C199.983 112.466 199.689 109.966 199.365 106.999L198.818 102.883L198.333 98.4327C197.309 90.8137 196.558 84.6989 196.08 80.0884C194.672 64.8777 194.912 52.8347 196.798 43.9592C199.252 32.2831 204.636 24.9367 212.95 21.9198C226.444 17.1009 239.121 24.3327 250.98 43.615C262.504 62.4658 270.853 88.8212 276.025 122.681C281.282 156.834 281.085 184.109 275.435 204.509C270.354 222.846 261.352 234.132 248.428 238.365C226.397 245.421 205.556 237.312 185.906 214.039C179.798 206.718 175.372 204.347 172.631 206.926C170.821 208.711 169.071 214.383 167.381 223.94C165.317 236.243 162.7 245.328 159.529 251.196C155.942 257.816 150.604 262.565 143.516 265.441C129.048 271.278 113.785 269.008 97.7272 258.631C79.4531 246.78 63.3923 225.906 49.5449 196.011C36.0465 166.965 28.367 141.103 26.5066 118.426ZM40.7131 200.108C26.9141 170.414 18.7874 143.406 16.8034 119.222L16.8006 119.188L16.798 119.154C15.7875 105.676 16.8514 93.7927 20.8328 84.1915C24.9681 74.2192 32.1584 67.0114 42.2291 63.4555C48.2486 61.2894 54.4848 60.9402 60.6427 62.6812C66.691 64.3913 72.0543 67.9409 76.7875 72.6059L76.7899 72.6083C83.874 79.5951 90.4933 90.2859 96.8665 103.815C98.9853 108.108 101.517 113.736 104.449 120.633L104.479 120.704L106.047 124.563L107.712 128.229L107.741 128.293C108.956 131.077 109.973 133.362 110.794 135.162C111.14 135.918 111.475 136.631 111.799 137.304L112.091 136.154L112.818 133.873L114.1 129.58L114.116 129.527C116.55 121.702 119.343 114.991 122.651 109.746C127.271 102.349 133.51 96.7975 141.499 94.0189C149.44 91.0966 157.56 92.3177 165.085 96.0626L165.212 96.1256L165.337 96.1922C170.476 98.9386 176.077 103.256 182.054 108.712L182.114 108.767L185.606 112.063L185.645 112.1L188.936 115.173L189.023 115.258C189.616 115.84 190.171 116.377 190.687 116.87C190.653 116.457 190.615 116.03 190.574 115.589C190.305 113.524 190.013 111.046 189.699 108.169L189.152 104.052L188.668 99.608C187.646 92.0016 186.886 85.8181 186.396 81.0925L186.391 81.039L186.386 80.9855C184.941 65.3753 185.092 52.2157 187.272 41.9493C190.15 28.2671 197.086 17.3196 209.629 12.7679L209.652 12.7594L209.676 12.751C219.153 9.36643 228.65 10.28 237.402 15.2729C245.733 20.0255 252.916 28.1792 259.273 38.5146L259.286 38.5368C271.753 58.928 280.378 86.7017 285.65 121.211C290.998 155.963 290.995 184.803 284.817 207.108C279.244 227.221 268.619 241.996 251.459 247.617L251.428 247.627L251.398 247.637C238.336 251.82 225.321 251.542 212.744 246.649C200.359 241.83 188.979 232.77 178.467 220.32L178.449 220.298L178.43 220.276C178.32 220.144 178.21 220.014 178.103 219.887C177.737 221.524 177.36 223.421 176.976 225.594C174.861 238.182 172.037 248.529 168.095 255.824L168.089 255.835C163.407 264.474 156.32 270.752 147.177 274.462L147.158 274.47C129.077 281.764 110.483 278.466 92.443 266.808L92.4297 266.799C72.0192 253.563 54.9637 230.872 40.7131 200.108ZM180.171 212.996C180.171 212.997 180.162 213.014 180.142 213.045C180.161 213.01 180.171 212.994 180.171 212.996ZM205.754 54.1704C205.753 54.1837 205.752 54.1971 205.751 54.2104C205.482 58.2573 205.515 62.3372 205.85 66.4502C205.85 66.4513 205.85 66.4524 205.85 66.4535C206.017 68.503 206.258 70.5608 206.575 72.6267C206.577 72.642 206.579 72.6573 206.582 72.6727C206.895 74.708 207.28 76.7514 207.739 78.8027L208.046 72.7009L208.166 66.4947C208.257 61.3536 208.411 57.3306 208.628 54.4258C208.628 54.4177 208.629 54.4096 208.629 54.4015C208.631 54.3786 208.633 54.3558 208.635 54.333C208.894 49.7317 209.46 45.8306 210.331 42.6296C210.333 42.6227 210.335 42.6159 210.337 42.609C210.912 40.5168 211.666 38.719 212.598 37.2155C212.605 37.2053 212.611 37.1951 212.617 37.185C213.775 35.329 215.205 33.924 216.91 32.9698C214.835 33.4593 213.039 34.5546 211.522 36.2555C210.103 37.9286 208.997 39.7754 208.205 41.7961C208.179 41.8642 208.153 41.9327 208.127 42.0015C208.127 42.0029 208.126 42.0042 208.126 42.0056C206.914 45.2651 206.125 49.3017 205.758 54.1156C205.757 54.1338 205.755 54.1521 205.754 54.1704ZM209.803 132.31C209.801 132.319 209.798 132.327 209.796 132.335C209.264 134.455 208.404 136.313 207.215 137.91C207.199 137.932 207.182 137.955 207.165 137.977C207.159 137.985 207.153 137.993 207.147 138.001C206.02 139.59 204.35 141.124 202.137 142.602C204.616 142.419 206.809 141.421 208.716 139.608C208.801 139.533 208.885 139.457 208.968 139.379C208.985 139.362 209.003 139.346 209.02 139.329C210.614 137.813 211.828 135.769 212.664 133.198C212.677 133.16 212.689 133.123 212.701 133.085C212.703 133.078 212.704 133.071 212.706 133.065C213.294 130.859 213.557 128.549 213.495 126.136C213.494 126.103 213.493 126.07 213.492 126.037C213.491 125.99 213.49 125.943 213.488 125.896C213.449 124.751 213.341 123.637 213.166 122.554C213.162 122.533 213.159 122.512 213.155 122.492C212.947 121.224 212.644 119.998 212.248 118.814L211.667 122.304L211.231 125.752C211.218 125.827 211.206 125.901 211.193 125.975C210.75 128.552 210.3 130.618 209.844 132.174C209.83 132.22 209.817 132.265 209.803 132.31ZM123.121 161.547C121.456 163.372 119.509 164.746 117.281 165.668C119.607 165.318 121.848 164.306 124.006 162.632C125.802 161.168 127.409 159.23 128.827 156.819C128.839 156.796 128.85 156.774 128.862 156.751C128.869 156.737 128.877 156.722 128.885 156.707C129.879 154.753 130.84 152.505 131.767 149.962L133.018 146.597L134.08 143.127L135.87 136.125C136.7 133.614 137.41 131.39 138 129.453C138.002 129.447 138.004 129.441 138.006 129.435C138.016 129.401 138.027 129.366 138.037 129.332C140.051 123.479 142.172 119.284 144.398 116.747C141.155 119.048 138.324 122.973 135.905 128.519C135.895 128.542 135.885 128.565 135.874 128.588C135.863 128.613 135.852 128.639 135.84 128.664C135.081 130.386 134.245 132.594 133.333 135.287C133.313 135.345 133.294 135.403 133.274 135.461C132.602 137.454 131.889 139.709 131.135 142.225C131.134 142.227 131.133 142.229 131.133 142.231L130.217 145.659L129.154 149.129C128.424 151.598 127.661 153.776 126.865 155.664C126.848 155.705 126.83 155.745 126.813 155.786C126.809 155.796 126.804 155.807 126.8 155.818C125.788 158.051 124.57 159.952 123.144 161.521C123.136 161.53 123.129 161.538 123.121 161.547ZM49.4587 83.6759C47.1518 84.6917 45.2601 86.3486 43.7836 88.6466C43.7774 88.6561 43.7713 88.6656 43.7652 88.6752C42.6125 90.4776 41.7139 92.6726 41.0697 95.2601C41.0566 95.3117 41.0436 95.3633 41.0306 95.4151C41.0299 95.418 41.0292 95.4209 41.0285 95.4237C40.0226 99.4567 39.505 104.311 39.4755 109.985C39.4753 110.024 39.4751 110.064 39.4749 110.103C39.4749 110.108 39.4749 110.113 39.4749 110.118C39.4511 114.451 39.7346 119.486 40.3251 125.225L41.2099 132.726L42.1366 140.373C41.2408 137.887 40.4505 135.396 39.7656 132.901C39.7652 132.899 39.7648 132.898 39.7644 132.896C39.0884 130.433 38.5153 127.966 38.045 125.494C38.0428 125.483 38.0407 125.472 38.0386 125.46C37.0701 120.361 36.5393 115.243 36.4462 110.107C36.4461 110.105 36.4461 110.103 36.4461 110.102C36.4457 110.08 36.4453 110.059 36.4449 110.038C36.5777 103.911 37.3664 98.7982 38.8112 94.6978C38.8124 94.6943 38.8137 94.6907 38.8149 94.6872C38.821 94.6699 38.8271 94.6526 38.8333 94.6354C39.8892 91.6951 41.1755 89.3744 42.6923 87.6735C44.7102 85.5123 46.9656 84.1798 49.4587 83.6759Z" fill="#7BB8C0"/>
<path d="M701.731 337.963C702.222 336.721 702.792 335.738 703.439 335.013C704.241 334.133 705.198 333.551 706.311 333.266C705.742 333.111 705.134 333.163 704.487 333.421C703.917 333.654 703.4 334.017 702.934 334.508C702.002 335.543 701.601 336.695 701.731 337.963ZM701.343 332.49C702.792 331.067 704.448 330.355 706.311 330.355C708.485 330.355 710.283 331.248 711.707 333.033C713.156 334.845 713.712 336.993 713.376 339.477C713.039 341.987 711.94 343.928 710.076 345.299C708.239 346.671 706.272 347.059 704.176 346.464C702.365 345.972 700.954 344.859 699.945 343.126C698.936 341.444 698.561 339.593 698.819 337.575C699.104 335.556 699.945 333.861 701.343 332.49ZM704.603 294.993C705.612 294.734 706.518 294.553 707.32 294.449C707.734 294.372 708.2 294.294 708.718 294.216L710.115 294.1C708.381 293.971 706.505 294.087 704.487 294.449C702.701 294.786 700.903 295.355 699.091 296.157C697.124 297.063 695.546 298.124 694.356 299.34C693.605 300.117 693.062 300.893 692.725 301.669C692.311 302.653 692.208 303.597 692.415 304.503C692.311 302.795 693.088 301.203 694.744 299.728C696.038 298.59 697.59 297.619 699.402 296.817C700.98 296.093 702.714 295.484 704.603 294.993ZM705.496 318.322L706.311 317.934C706.984 317.675 707.527 317.338 707.941 316.924C707.191 317.131 706.596 317.287 706.156 317.39C705.509 317.545 704.901 317.778 704.331 318.089C703.633 318.477 703.141 318.904 702.856 319.37C702.416 319.991 702.287 320.625 702.468 321.272C702.598 320.651 702.869 320.133 703.283 319.719C703.62 319.383 704.086 319.046 704.681 318.71C704.914 318.58 705.185 318.451 705.496 318.322ZM705.457 291.577C708.304 291.111 710.917 291.059 713.298 291.422C718.034 292.146 721.527 293.893 723.779 296.662C725.849 299.224 726.703 302.407 726.341 306.211C725.771 312.81 722.834 318.076 717.529 322.009C715.511 323.51 713.324 324.675 710.969 325.503C708.925 326.227 707.126 326.59 705.574 326.59C703.762 326.59 702.3 326.085 701.187 325.076C700.178 324.118 699.635 322.889 699.557 321.388C699.428 318.36 701.368 316.2 705.38 314.906C706.441 314.544 707.256 313.987 707.825 313.237C708.368 312.538 708.575 311.839 708.446 311.141C708.291 310.416 707.825 309.898 707.049 309.588C706.143 309.277 704.965 309.303 703.516 309.666C694.847 311.943 690.189 310.338 689.542 304.852C689.258 302.653 689.892 300.582 691.444 298.642C692.816 296.882 694.821 295.368 697.461 294.1C699.893 292.91 702.559 292.069 705.457 291.577Z" fill="#10B48E"/>
<path d="M651.036 318.05C651.761 317.765 652.421 317.325 653.016 316.73C654.18 315.436 654.62 313.987 654.335 312.383C653.947 313.961 653.313 315.229 652.433 316.187C651.476 317.248 650.247 317.933 648.746 318.244C649.496 318.399 650.26 318.334 651.036 318.05ZM647.077 310.015C646.585 310.584 646.313 311.283 646.262 312.111C646.236 312.939 646.469 313.651 646.96 314.246C647.426 314.867 648.008 315.19 648.707 315.216C649.38 315.242 649.975 314.97 650.493 314.401C651.01 313.832 651.282 313.133 651.308 312.305C651.334 311.477 651.114 310.752 650.648 310.131C650.182 309.536 649.6 309.225 648.901 309.2C648.202 309.174 647.594 309.445 647.077 310.015ZM637.838 299.224C639.184 297.671 640.672 296.481 642.302 295.652C643.907 294.824 645.757 294.32 647.853 294.139C646.947 294.061 645.964 294.1 644.903 294.255C643.92 294.436 642.962 294.734 642.031 295.148C640.323 295.872 638.731 297.063 637.256 298.719C636.014 300.194 634.966 301.889 634.112 303.804C633.31 305.641 632.727 307.518 632.365 309.432C633.141 307.285 633.905 305.486 634.655 304.037C635.665 302.096 636.726 300.492 637.838 299.224ZM664.932 325.658C666.149 327.004 667.223 328.453 668.154 330.005C669.578 332.438 670.289 334.793 670.289 337.07C670.289 339.114 669.746 340.952 668.659 342.582C667.676 344.057 666.395 345.17 664.816 345.92C663.263 346.671 661.737 346.904 660.236 346.619C656.69 345.946 654.051 343.902 652.317 340.486C652.032 339.891 651.722 339.192 651.385 338.39L650.997 337.342L650.609 336.371C649.988 334.793 649.406 333.693 648.862 333.072C647.957 332.037 647.271 331.83 646.805 332.451C646.158 333.305 645.77 335.724 645.641 339.71C645.563 341.857 644.877 343.565 643.583 344.833C642.367 345.998 640.879 346.554 639.119 346.503C637.256 346.451 635.535 345.739 633.957 344.368C632.171 342.815 630.838 340.667 629.959 337.924C628.483 333.395 627.72 328.362 627.668 322.824C627.617 317.105 628.354 311.852 629.881 307.065C631.563 301.811 633.995 297.813 637.178 295.07C640.75 291.965 645.032 290.684 650.027 291.227C653.857 291.641 657.053 292.884 659.615 294.954C661.944 296.869 663.574 299.301 664.506 302.251C665.359 305.072 665.476 308.022 664.855 311.102C664.208 314.207 662.862 317.015 660.818 319.525C660.378 320.068 660.287 320.612 660.546 321.155C660.727 321.543 661.258 322.151 662.138 322.98L662.448 323.251L662.759 323.523C663.018 323.756 663.25 323.963 663.457 324.144C664.001 324.662 664.493 325.166 664.932 325.658Z" fill="#F775A9"/>
<path d="M605.815 297.166C606.022 296.519 606.345 296.002 606.785 295.614C607.691 294.786 608.881 294.294 610.356 294.139C608.803 293.957 607.484 294.294 606.397 295.148C605.853 295.536 605.426 296.118 605.116 296.895C604.883 297.49 604.741 298.189 604.689 298.991C604.637 300.207 604.805 301.579 605.193 303.105C605.478 304.244 605.918 305.525 606.513 306.948L606.125 304.93L605.776 302.95C605.491 301.294 605.388 299.987 605.465 299.03C605.491 298.305 605.607 297.684 605.815 297.166ZM616.412 292.896C618.223 294.087 619.685 295.743 620.798 297.865C622.48 300.97 623.45 305.447 623.709 311.296C623.994 316.834 623.606 322.436 622.545 328.103C621.432 334.004 619.84 338.623 617.77 341.961C615.441 345.713 612.827 347.253 609.929 346.58C608.428 346.244 607.445 345.416 606.979 344.096C606.591 343.061 606.436 341.275 606.513 338.739C606.539 338.248 606.565 337.639 606.591 336.915L606.63 335.906L606.707 334.896C606.785 333.085 606.837 331.519 606.863 330.2C606.94 326.111 606.759 322.139 606.319 318.283C606.138 316.678 605.685 314.66 604.961 312.227L604.495 310.675L604.029 309.161C603.615 307.893 603.304 306.871 603.097 306.094C601.752 301.255 601.713 297.58 602.981 295.07C603.68 293.725 604.779 292.689 606.28 291.965C607.781 291.24 609.412 290.956 611.171 291.111C613.034 291.24 614.781 291.836 616.412 292.896Z" fill="#F775A9"/>
<path d="M579.302 326.434C579.872 326.279 580.428 325.994 580.971 325.58C582.058 324.726 582.692 323.678 582.873 322.436C582.045 323.575 581.269 324.429 580.544 324.998C579.639 325.697 578.604 326.188 577.439 326.473C578.034 326.628 578.655 326.615 579.302 326.434ZM575.615 321.892C575.796 322.617 576.184 323.109 576.779 323.368C577.374 323.6 577.995 323.523 578.642 323.135C579.289 322.721 579.768 322.125 580.079 321.349C580.389 320.547 580.454 319.783 580.273 319.059C580.066 318.334 579.665 317.856 579.069 317.623C578.474 317.39 577.853 317.467 577.206 317.856C576.559 318.244 576.081 318.839 575.77 319.641C575.459 320.417 575.408 321.168 575.615 321.892ZM566.959 307.88C568.356 305.628 569.546 303.83 570.53 302.484C571.927 300.543 573.286 298.887 574.605 297.515L575.188 296.933C575.395 296.726 575.589 296.558 575.77 296.429L576.391 295.885L577.012 295.419C578.099 294.695 579.082 294.294 579.962 294.216C579.108 294.164 578.06 294.462 576.818 295.109L576.119 295.536L575.459 296.04C575.278 296.17 575.071 296.338 574.838 296.545L574.217 297.088C572.846 298.331 571.41 299.987 569.909 302.057C568.615 303.869 567.463 305.719 566.454 307.608C565.367 309.652 564.448 311.619 563.698 313.508L565.328 310.674C565.949 309.613 566.493 308.682 566.959 307.88ZM569.482 298.214C573.7 293.064 577.491 290.748 580.855 291.266C584.219 291.809 587.376 294.747 590.326 300.077C592.914 304.813 594.958 310.649 596.459 317.584C597.909 324.26 598.491 330.212 598.206 335.44C597.896 341.029 596.628 344.329 594.402 345.338C592.513 346.192 590.624 346.218 588.735 345.415C587.312 344.794 585.72 343.617 583.96 341.883L582.912 340.757L581.864 339.671C581.01 338.739 580.363 338.066 579.923 337.652C578.5 336.281 577.31 335.595 576.352 335.595C575.421 335.595 574.269 336.319 572.898 337.769C572.509 338.183 571.888 338.894 571.034 339.903L570.025 341.068C569.637 341.508 569.275 341.909 568.938 342.271C567.204 344.109 565.561 345.364 564.008 346.037C561.938 346.942 559.803 346.968 557.604 346.114C554.679 345.001 553.489 341.379 554.033 335.245C554.524 329.656 556.271 323.264 559.273 316.07C562.301 308.824 565.703 302.872 569.482 298.214Z" fill="#F775A9"/>
<path d="M536.255 295.925C536.565 295.511 536.902 295.226 537.264 295.071C537.6 294.916 538.053 294.799 538.623 294.721C538.053 294.696 537.574 294.747 537.186 294.877C536.772 295.006 536.371 295.265 535.983 295.653C535.44 296.248 535 297.128 534.663 298.293C534.275 299.742 534.094 301.631 534.12 303.96L534.159 304.697V305.396C534.184 305.94 534.184 306.392 534.159 306.755C534.107 307.66 533.926 308.553 533.615 309.433C532.942 311.27 531.726 312.603 529.966 313.431C530.846 313.172 531.674 312.707 532.451 312.034C533.149 311.387 533.706 310.598 534.12 309.666C534.508 308.838 534.754 307.893 534.857 306.832C534.883 306.418 534.896 305.927 534.896 305.357V304.659L534.857 303.96C534.831 301.734 534.948 299.884 535.207 298.409C535.44 297.322 535.789 296.494 536.255 295.925ZM509.005 299.574C509.497 298.176 510.183 296.999 511.063 296.041C512.124 294.903 513.34 294.269 514.711 294.139C514.013 294.062 513.288 294.152 512.538 294.411C511.865 294.67 511.244 295.071 510.674 295.614C509.639 296.546 508.85 297.788 508.307 299.341C507.375 302.084 506.87 304.917 506.793 307.842L507.259 305.745L507.802 303.688C508.19 302.11 508.591 300.738 509.005 299.574ZM532.878 295.304C533.965 293.078 535.828 291.888 538.467 291.733C542.142 291.551 545.079 294.023 547.279 299.147C549.375 304.063 550.306 310.209 550.074 317.585C549.763 327.159 548.948 334.017 547.628 338.158C545.791 343.877 542.569 346.736 537.963 346.736C535.271 346.736 533.188 345.688 531.713 343.592C530.135 341.341 529.449 338.08 529.656 333.81C529.785 331.274 529.436 329.424 528.608 328.259C527.961 327.379 527.055 326.939 525.891 326.939C523.51 326.939 522.501 329.333 522.863 334.121C523.355 340.668 521.116 344.304 516.148 345.028C513.896 345.339 511.865 344.731 510.053 343.204C507.802 341.341 506.172 338.274 505.162 334.004C503.791 328.259 503.144 322.204 503.222 315.838C503.299 309.239 504.153 303.52 505.783 298.681C506.612 296.171 507.918 294.23 509.704 292.858C511.593 291.435 513.689 290.904 515.992 291.267C518.891 291.707 520.974 292.949 522.242 294.993C523.639 297.296 524.092 300.725 523.6 305.28C523.419 306.884 523.652 308.191 524.299 309.2C524.946 310.184 525.916 310.727 527.21 310.83C528.453 310.934 529.475 310.559 530.277 309.705C531.209 308.721 531.636 307.246 531.558 305.28C531.351 300.777 531.791 297.452 532.878 295.304Z" fill="#F775A9"/>
<path d="M472.012 330.666L472.594 330.471C474.328 329.928 475.867 329.514 477.213 329.229C476.514 329.1 475.699 329.1 474.768 329.229C474.043 329.307 473.241 329.488 472.361 329.773C472.05 329.85 471.662 329.993 471.196 330.2L470.653 330.394L470.11 330.627C469.359 330.885 468.583 331.093 467.781 331.248C468.531 331.403 469.359 331.377 470.265 331.17C470.575 331.118 470.976 331.015 471.468 330.86L472.012 330.666ZM457.572 295.886C458.529 295.342 459.603 294.915 460.793 294.605C461.777 294.32 462.941 294.126 464.287 294.022C463.174 293.945 461.984 294.022 460.716 294.255C459.474 294.488 458.335 294.863 457.3 295.381C456.239 295.899 455.243 296.584 454.311 297.438C453.509 298.189 452.771 299.172 452.099 300.388C451.038 302.303 450.235 304.568 449.692 307.181C449.226 309.433 448.98 311.801 448.954 314.285L449.187 312.499C449.291 311.826 449.394 311.244 449.498 310.752C449.731 309.536 449.989 308.385 450.274 307.298C450.973 304.606 451.801 302.42 452.758 300.738C453.379 299.625 454.052 298.706 454.777 297.982C455.527 297.231 456.459 296.533 457.572 295.886ZM468.246 315.216L467.975 315.333L467.354 315.527L466.771 315.721C467.134 315.85 467.561 315.902 468.052 315.876C468.233 315.876 468.453 315.85 468.712 315.799L469.023 315.76L469.294 315.721C469.657 315.669 470.045 315.63 470.459 315.605C470.951 315.605 471.365 315.643 471.701 315.721C471.468 315.385 471.08 315.152 470.537 315.022C470.148 314.919 469.695 314.906 469.178 314.984C468.997 315.009 468.79 315.061 468.557 315.139L468.246 315.216ZM466.577 328.026C467.509 328.388 468.647 328.311 469.993 327.793C474.392 326.137 477.834 325.788 480.318 326.745C482.673 327.651 483.838 329.592 483.812 332.568C483.786 334.793 482.712 337.019 480.59 339.244C478.546 341.34 475.932 343.074 472.749 344.446C469.488 345.869 466.267 346.632 463.084 346.736C459.59 346.839 456.653 346.115 454.272 344.562C451.814 342.983 449.821 339.943 448.294 335.44C446.871 331.248 446.043 326.46 445.81 321.078C445.603 315.669 446.043 310.714 447.13 306.211C448.32 301.32 450.106 297.749 452.487 295.497C455.074 293.065 458.206 291.616 461.88 291.15C465.141 290.762 468.389 291.15 471.623 292.314C474.703 293.453 477.032 295.019 478.61 297.011C480.267 299.107 480.642 301.178 479.736 303.222C479.219 304.412 478.3 305.279 476.98 305.823C476.049 306.211 474.716 306.47 472.982 306.599L471.934 306.677L470.847 306.716C469.993 306.767 469.307 306.832 468.79 306.91C467.289 307.091 466.176 307.453 465.452 307.996C464.96 308.359 464.623 308.85 464.442 309.472C464.287 310.067 464.3 310.649 464.481 311.218C464.973 312.564 466.073 313.017 467.781 312.577C469.799 312.059 471.533 312.202 472.982 313.004C474.405 313.78 475.169 314.971 475.272 316.575C475.376 318.309 474.819 319.732 473.603 320.845C472.257 322.061 470.2 322.799 467.431 323.057C466.5 323.161 465.801 323.562 465.335 324.261C464.921 324.934 464.818 325.645 465.025 326.396C465.257 327.198 465.775 327.741 466.577 328.026Z" fill="#FFC228"/>
<path d="M428.111 295.925C428.421 295.511 428.758 295.226 429.12 295.071C429.457 294.916 429.909 294.799 430.479 294.721C429.909 294.696 429.431 294.747 429.043 294.877C428.628 295.006 428.227 295.265 427.839 295.653C427.296 296.248 426.856 297.128 426.519 298.293C426.131 299.742 425.95 301.631 425.976 303.96L426.015 304.697V305.396C426.041 305.94 426.041 306.392 426.015 306.755C425.963 307.66 425.782 308.553 425.471 309.433C424.799 311.27 423.582 312.603 421.823 313.431C422.702 313.172 423.531 312.707 424.307 312.034C425.006 311.387 425.562 310.598 425.976 309.666C426.364 308.838 426.61 307.893 426.714 306.832C426.739 306.418 426.752 305.927 426.752 305.357V304.659L426.714 303.96C426.688 301.734 426.804 299.884 427.063 298.409C427.296 297.322 427.645 296.494 428.111 295.925ZM400.861 299.574C401.353 298.176 402.039 296.999 402.919 296.041C403.98 294.903 405.196 294.269 406.568 294.139C405.869 294.062 405.144 294.152 404.394 294.411C403.721 294.67 403.1 295.071 402.531 295.614C401.495 296.546 400.706 297.788 400.163 299.341C399.231 302.084 398.727 304.917 398.649 307.842L399.115 305.745L399.658 303.688C400.046 302.11 400.447 300.738 400.861 299.574ZM424.734 295.304C425.821 293.078 427.684 291.888 430.323 291.733C433.998 291.551 436.935 294.023 439.135 299.147C441.231 304.063 442.163 310.209 441.93 317.585C441.619 327.159 440.804 334.017 439.484 338.158C437.647 343.877 434.425 346.736 429.819 346.736C427.128 346.736 425.044 345.688 423.569 343.592C421.991 341.341 421.305 338.08 421.512 333.81C421.641 331.274 421.292 329.424 420.464 328.259C419.817 327.379 418.911 326.939 417.747 326.939C415.366 326.939 414.357 329.333 414.719 334.121C415.211 340.668 412.972 344.304 408.004 345.028C405.752 345.339 403.721 344.731 401.91 343.204C399.658 341.341 398.028 338.274 397.019 334.004C395.647 328.259 395 322.204 395.078 315.838C395.155 309.239 396.009 303.52 397.64 298.681C398.468 296.171 399.775 294.23 401.56 292.858C403.449 291.435 405.545 290.904 407.849 291.267C410.747 291.707 412.83 292.949 414.098 294.993C415.495 297.296 415.948 300.725 415.457 305.28C415.275 306.884 415.508 308.191 416.155 309.2C416.802 310.184 417.773 310.727 419.067 310.83C420.309 310.934 421.331 310.559 422.133 309.705C423.065 308.721 423.492 307.246 423.414 305.28C423.207 300.777 423.647 297.452 424.734 295.304Z" fill="#FFC228"/>
<path d="M355.678 295.614C356.817 295.277 358.292 294.98 360.103 294.721C361.449 294.514 362.963 294.333 364.645 294.178C361.41 293.867 358.357 294.1 355.484 294.876C353.699 295.42 352.288 296.067 351.253 296.817C350.503 297.387 349.959 297.969 349.623 298.564C349.209 299.289 349.092 300.052 349.273 300.854C349.273 300 349.493 299.301 349.933 298.758C350.27 298.292 350.813 297.813 351.564 297.322C352.599 296.649 353.97 296.08 355.678 295.614ZM352.068 293.324C356.002 291.616 361.138 290.93 367.479 291.266C374.75 291.655 380.663 293.052 385.218 295.459C387.495 296.675 389.125 298.021 390.109 299.496C391.17 301.074 391.441 302.743 390.924 304.503C390.536 305.9 389.708 306.897 388.44 307.492C387.482 307.958 386.162 308.203 384.48 308.229L383.432 308.268L382.384 308.229C381.453 308.229 380.78 308.229 380.366 308.229C378.917 308.281 377.907 308.527 377.338 308.967C376.484 309.64 376.083 312.033 376.135 316.148C376.186 320.004 376.613 324.649 377.416 330.083C378.917 340.383 376.872 345.908 371.283 346.658C368.255 347.046 365.641 346.089 363.442 343.786C361.371 341.612 360.168 338.765 359.832 335.246C359.599 332.917 359.573 330.187 359.754 327.056C359.857 324.856 360.077 322.19 360.414 319.059C361.113 312.9 361.358 309.536 361.151 308.967C360.789 308.009 359.819 307.362 358.24 307.026C357.645 306.897 356.869 306.793 355.911 306.715L354.63 306.599L353.349 306.483C351.253 306.25 349.687 305.823 348.652 305.202C347.229 304.348 346.44 302.976 346.285 301.087C345.974 297.723 347.902 295.135 352.068 293.324Z" fill="#FFC228"/>
<path d="M291.398 295.614C292.537 295.277 294.012 294.98 295.823 294.721C297.169 294.514 298.683 294.333 300.365 294.178C297.13 293.867 294.077 294.1 291.204 294.876C289.418 295.42 288.008 296.067 286.973 296.817C286.223 297.387 285.679 297.969 285.343 298.564C284.929 299.289 284.812 300.052 284.993 300.854C284.993 300 285.213 299.301 285.653 298.758C285.99 298.292 286.533 297.813 287.284 297.322C288.319 296.649 289.69 296.08 291.398 295.614ZM287.788 293.324C291.722 291.616 296.858 290.93 303.198 291.266C310.47 291.655 316.383 293.052 320.938 295.459C323.215 296.675 324.845 298.021 325.829 299.496C326.89 301.074 327.161 302.743 326.644 304.503C326.256 305.9 325.428 306.897 324.16 307.492C323.202 307.958 321.882 308.203 320.2 308.229L319.152 308.268L318.104 308.229C317.173 308.229 316.5 308.229 316.086 308.229C314.637 308.281 313.627 308.527 313.058 308.967C312.204 309.64 311.803 312.033 311.855 316.148C311.906 320.004 312.333 324.649 313.136 330.083C314.637 340.383 312.592 345.908 307.003 346.658C303.975 347.046 301.361 346.089 299.162 343.786C297.091 341.612 295.888 338.765 295.552 335.246C295.319 332.917 295.293 330.187 295.474 327.056C295.577 324.856 295.797 322.19 296.134 319.059C296.833 312.9 297.078 309.536 296.871 308.967C296.509 308.009 295.539 307.362 293.96 307.026C293.365 306.897 292.589 306.793 291.631 306.715L290.35 306.599L289.069 306.483C286.973 306.25 285.407 305.823 284.372 305.202C282.949 304.348 282.16 302.976 282.004 301.087C281.694 297.723 283.622 295.135 287.788 293.324Z" fill="#7BB8C0"/>
<path d="M259.296 326.434C259.866 326.279 260.422 325.994 260.966 325.58C262.052 324.726 262.686 323.678 262.868 322.436C262.04 323.575 261.263 324.429 260.539 324.998C259.633 325.697 258.598 326.188 257.433 326.473C258.028 326.628 258.65 326.615 259.296 326.434ZM255.609 321.892C255.79 322.617 256.178 323.109 256.773 323.368C257.369 323.6 257.99 323.523 258.637 323.135C259.284 322.721 259.762 322.125 260.073 321.349C260.383 320.547 260.448 319.783 260.267 319.059C260.06 318.334 259.659 317.856 259.064 317.623C258.468 317.39 257.847 317.467 257.2 317.856C256.553 318.244 256.075 318.839 255.764 319.641C255.454 320.417 255.402 321.168 255.609 321.892ZM246.953 307.88C248.35 305.628 249.54 303.83 250.524 302.484C251.921 300.543 253.28 298.887 254.6 297.515L255.182 296.933C255.389 296.726 255.583 296.558 255.764 296.429L256.385 295.885L257.006 295.419C258.093 294.695 259.076 294.294 259.956 294.216C259.102 294.164 258.054 294.462 256.812 295.109L256.113 295.536L255.454 296.04C255.272 296.17 255.065 296.338 254.833 296.545L254.211 297.088C252.84 298.331 251.404 299.987 249.903 302.057C248.609 303.869 247.457 305.719 246.448 307.608C245.361 309.652 244.443 311.619 243.692 313.508L245.322 310.674C245.943 309.613 246.487 308.682 246.953 307.88ZM249.476 298.214C253.694 293.064 257.485 290.748 260.849 291.266C264.213 291.809 267.37 294.747 270.32 300.077C272.908 304.813 274.953 310.649 276.454 317.584C277.903 324.26 278.485 330.212 278.2 335.44C277.89 341.029 276.622 344.329 274.396 345.338C272.507 346.192 270.618 346.218 268.729 345.415C267.306 344.794 265.714 343.617 263.954 341.883L262.906 340.757L261.858 339.671C261.004 338.739 260.357 338.066 259.918 337.652C258.494 336.281 257.304 335.595 256.346 335.595C255.415 335.595 254.263 336.319 252.892 337.769C252.503 338.183 251.882 338.894 251.028 339.903L250.019 341.068C249.631 341.508 249.269 341.909 248.932 342.271C247.199 344.109 245.555 345.364 244.003 346.037C241.932 346.942 239.797 346.968 237.598 346.114C234.674 345.001 233.483 341.379 234.027 335.245C234.518 329.656 236.265 323.264 239.267 316.07C242.295 308.824 245.698 302.872 249.476 298.214Z" fill="#7BB8C0"/>
<path d="M216.248 295.925C216.559 295.511 216.895 295.226 217.258 295.071C217.594 294.916 218.047 294.799 218.616 294.721C218.047 294.696 217.568 294.747 217.18 294.877C216.766 295.006 216.365 295.265 215.977 295.653C215.433 296.248 214.993 297.128 214.657 298.293C214.269 299.742 214.088 301.631 214.113 303.96L214.152 304.697V305.396C214.178 305.94 214.178 306.392 214.152 306.755C214.101 307.66 213.919 308.553 213.609 309.433C212.936 311.27 211.72 312.603 209.96 313.431C210.84 313.172 211.668 312.707 212.444 312.034C213.143 311.387 213.699 310.598 214.113 309.666C214.502 308.838 214.747 307.893 214.851 306.832C214.877 306.418 214.89 305.927 214.89 305.357V304.659L214.851 303.96C214.825 301.734 214.942 299.884 215.2 298.409C215.433 297.322 215.783 296.494 216.248 295.925ZM188.999 299.574C189.491 298.176 190.176 296.999 191.056 296.041C192.117 294.903 193.333 294.269 194.705 294.139C194.006 294.062 193.282 294.152 192.531 294.411C191.858 294.67 191.237 295.071 190.668 295.614C189.633 296.546 188.844 297.788 188.3 299.341C187.369 302.084 186.864 304.917 186.786 307.842L187.252 305.745L187.796 303.688C188.184 302.11 188.585 300.738 188.999 299.574ZM212.871 295.304C213.958 293.078 215.821 291.888 218.461 291.733C222.136 291.551 225.073 294.023 227.272 299.147C229.368 304.063 230.3 310.209 230.067 317.585C229.757 327.159 228.941 334.017 227.622 338.158C225.784 343.877 222.563 346.736 217.956 346.736C215.265 346.736 213.182 345.688 211.707 343.592C210.128 341.341 209.442 338.08 209.65 333.81C209.779 331.274 209.43 329.424 208.601 328.259C207.955 327.379 207.049 326.939 205.884 326.939C203.504 326.939 202.494 329.333 202.857 334.121C203.348 340.668 201.11 344.304 196.141 345.028C193.89 345.339 191.858 344.731 190.047 343.204C187.796 341.341 186.165 338.274 185.156 334.004C183.785 328.259 183.138 322.204 183.215 315.838C183.293 309.239 184.147 303.52 185.777 298.681C186.605 296.171 187.912 294.23 189.698 292.858C191.587 291.435 193.683 290.904 195.986 291.267C198.884 291.707 200.967 292.949 202.235 294.993C203.633 297.296 204.086 300.725 203.594 305.28C203.413 306.884 203.646 308.191 204.293 309.2C204.94 310.184 205.91 310.727 207.204 310.83C208.446 310.934 209.468 310.559 210.271 309.705C211.202 308.721 211.629 307.246 211.552 305.28C211.345 300.777 211.784 297.452 212.871 295.304Z" fill="#7BB8C0"/>
<path d="M166.989 298.797C167.377 297.684 167.791 296.766 168.231 296.041C168.878 294.98 169.642 294.346 170.521 294.139C169.978 294.113 169.46 294.256 168.969 294.566C168.503 294.877 168.102 295.252 167.765 295.692C167.222 296.416 166.73 297.374 166.29 298.564C165.592 300.505 165.178 302.562 165.048 304.736L165.553 303.261L166.019 301.747C166.407 300.479 166.73 299.496 166.989 298.797ZM162.447 318.4C162.758 317.882 162.991 317.313 163.146 316.692C163.301 316.071 163.366 315.463 163.34 314.867L162.952 315.683L162.603 316.498C162.292 317.145 162.02 317.649 161.788 318.012C161.503 318.503 161.154 318.904 160.74 319.215C160.351 319.525 159.834 319.784 159.187 319.991C159.808 320.121 160.416 320.03 161.011 319.719C161.555 319.461 162.033 319.021 162.447 318.4ZM143.388 313.742C143.777 313.172 144.113 312.668 144.398 312.228C145.303 310.934 146.118 310.054 146.843 309.588C145.886 309.925 144.915 310.688 143.932 311.878C143.388 312.525 142.677 313.535 141.797 314.906L141.331 315.683L140.826 316.459C140.464 317.028 140.115 317.52 139.778 317.934C138.899 318.969 137.889 319.551 136.751 319.681C137.346 319.758 137.967 319.668 138.614 319.409C139.157 319.176 139.688 318.814 140.205 318.322C140.594 317.908 140.995 317.416 141.409 316.847L141.952 316.11L142.457 315.333L143.388 313.742ZM121.573 300.583C121.987 299.159 122.466 297.982 123.01 297.05C123.786 295.705 124.743 294.954 125.882 294.799C125.235 294.747 124.588 294.916 123.941 295.304C123.449 295.614 122.971 296.093 122.505 296.74C121.858 297.646 121.302 298.849 120.836 300.35C120.163 302.86 119.917 305.474 120.098 308.191L120.409 306.25L120.719 304.348C120.978 302.899 121.263 301.644 121.573 300.583ZM164.815 295.42C166.239 292.729 168.076 291.306 170.327 291.15C173.976 290.917 176.577 293.583 178.129 299.147C179.63 304.581 179.824 311.633 178.712 320.302C177.599 329.048 175.632 335.725 172.812 340.331C170.276 344.472 167.274 346.607 163.806 346.736C157.906 346.917 153.364 343.462 150.181 336.372C149.198 334.146 148.279 333.254 147.425 333.694C146.856 334.004 146.028 335.272 144.941 337.498C143.57 340.37 142.289 342.414 141.098 343.631C139.753 345.002 138.109 345.791 136.168 345.998C132.209 346.413 128.625 344.782 125.416 341.108C121.767 336.915 119.296 330.666 118.002 322.359C116.734 314.285 116.669 307.402 117.808 301.708C119.128 295.342 121.754 292.043 125.688 291.81C127.991 291.655 129.828 292.794 131.2 295.226C132.235 297.063 133.05 299.819 133.645 303.494C133.852 304.633 134.072 306.147 134.305 308.036L134.422 309.122L134.577 310.171C134.68 310.947 134.771 311.594 134.849 312.111C135.263 314.854 135.806 316.355 136.479 316.614C136.997 316.821 137.618 316.433 138.342 315.45C138.601 315.087 138.95 314.557 139.39 313.858L139.662 313.392L139.972 312.927L140.594 311.956C141.68 310.3 142.703 309.045 143.66 308.191C144.98 307 146.39 306.366 147.891 306.289C149.211 306.185 150.479 306.69 151.695 307.803C152.549 308.631 153.494 309.886 154.529 311.568L155.15 312.616L155.732 313.586C156.172 314.363 156.534 314.958 156.819 315.372C157.621 316.511 158.346 317.054 158.993 317.002C159.64 316.951 160.209 315.605 160.701 312.965C160.778 312.448 160.882 311.814 161.011 311.063L161.166 310.015L161.361 308.89C161.645 306.949 161.891 305.396 162.098 304.232C162.823 300.402 163.728 297.464 164.815 295.42Z" fill="#7BB8C0"/>
</svg>
