<svg width="114" height="29" viewBox="0 0 114 29" fill="none" xmlns="http://www.w3.org/2000/svg">
<g clip-path="url(#clip0_51_1384)">
<path d="M2.462 20.045C2.5555 21.256 2.83598 22.3077 3.27228 23.1681C3.70858 24.0286 4.26955 24.7297 4.95517 25.2396C5.64079 25.7813 6.4199 26.1637 7.32367 26.4187C8.22745 26.6736 9.19355 26.7692 10.1908 26.7692C11.3751 26.7692 12.4347 26.6099 13.3073 26.3231C14.1799 26.0044 14.8967 25.5901 15.4265 25.0802C15.9874 24.5703 16.3926 23.9648 16.6419 23.2637C16.8912 22.5626 17.047 21.8615 17.047 21.0967C17.047 20.0132 16.7977 19.1527 16.3302 18.4835C15.8628 17.8143 15.2395 17.2725 14.4915 16.8582C13.7436 16.4439 12.871 16.0934 11.8737 15.8385C10.8764 15.5835 9.87917 15.3286 8.85074 15.1055C7.82231 14.8505 6.79388 14.5637 5.82778 14.245C4.86167 13.9264 3.9579 13.4802 3.20995 12.9066C2.462 12.333 1.83871 11.6319 1.37124 10.7396C0.903773 9.84724 0.654457 8.73186 0.654457 7.3934C0.654457 6.43735 0.841444 5.54505 1.24658 4.65274C1.62056 3.76043 2.21269 2.96373 2.96063 2.2945C3.70858 1.5934 4.67469 1.05164 5.82778 0.637355C6.98086 0.223069 8.28978 0.0318604 9.78568 0.0318604C11.2816 0.0318604 12.6217 0.254937 13.7747 0.669223C14.8967 1.11538 15.8628 1.689 16.6107 2.45384C17.3587 3.21867 17.9196 4.07911 18.2936 5.06703C18.6676 6.05494 18.8546 7.10659 18.8546 8.25384H16.4237C16.4237 7.20219 16.2367 6.30988 15.8939 5.54505C15.52 4.78021 15.0525 4.14285 14.4292 3.66483C13.8059 3.18681 13.0891 2.83626 12.31 2.58131C11.4997 2.35823 10.6894 2.23076 9.84801 2.23076C8.53909 2.23076 7.44833 2.42197 6.57572 2.77252C5.70312 3.15494 4.98633 3.63296 4.45653 4.20659C3.92674 4.78021 3.58393 5.44944 3.36577 6.15054C3.17879 6.85164 3.11646 7.58461 3.24112 8.28571C3.39694 9.17801 3.73975 9.87911 4.30071 10.4209C4.86167 10.9626 5.51613 11.4088 6.32641 11.7275C7.13669 12.078 8.0093 12.3648 8.9754 12.556C9.9415 12.7791 10.9076 13.0022 11.9049 13.2571C12.9021 13.5121 13.8682 13.7989 14.8032 14.1176C15.7381 14.4363 16.5796 14.8824 17.2963 15.456C18.0131 16.0297 18.6052 16.7308 19.0416 17.6231C19.4779 18.5154 19.696 19.5989 19.696 20.9374C19.696 23.4868 18.8234 25.4626 17.1093 26.8648C15.3953 28.267 12.9645 28.9681 9.84801 28.9681C8.4456 28.9681 7.16785 28.7769 5.95243 28.4264C4.76818 28.0439 3.70858 27.5022 2.83598 26.7374C1.96337 25.9725 1.27775 25.0483 0.810279 23.933C0.342811 22.8176 0.0934944 21.511 0.0934944 20.0132H2.5555L2.462 20.045Z" fill="black"/>
<path d="M53.3537 28.267V0.73291H71.2734V2.96368H55.9092V12.9065H69.7775V15.1373H55.9092V26.0681H71.6473V28.2988H53.3537V28.267Z" fill="black"/>
<path d="M76.2285 28.267V0.73291H78.784V26.0362H93.2132V28.267H76.2285Z" fill="black"/>
<path d="M97.0153 28.267V0.73291H99.5708V26.0362H114V28.267H97.0153Z" fill="black"/>
<path d="M53.2291 0.70105H56.1274V28.2032H53.2291V24.0604H53.1356C52.3876 25.6538 51.328 26.8648 49.9568 27.6934C48.5856 28.5219 47.0585 28.9362 45.4379 28.9362C44.2849 28.9362 43.3188 28.8087 42.5085 28.5219C41.6982 28.2351 41.0126 27.8527 40.4516 27.3747C39.8906 26.8967 39.4232 26.3549 39.0492 25.7175C38.6752 25.0802 38.3636 24.3791 38.1143 23.6461C37.2728 25.4626 36.1509 26.801 34.7797 27.6615C33.3773 28.5219 31.7879 28.9681 29.9803 28.9681C28.2663 28.9681 26.9262 28.6494 25.9289 28.0439C24.9317 27.4384 24.1525 26.6098 23.5916 25.5901C23.0306 24.5703 22.6878 23.423 22.5008 22.1164C22.3138 20.8098 22.2515 19.4714 22.2515 18.0692V0.70105H25.1498V19.6945C25.1498 21.6703 25.5238 23.2318 26.2717 24.3791C27.0197 25.5263 28.4221 26.0681 30.4789 26.0681C31.5385 26.0681 32.567 25.8131 33.5331 25.3032C34.4992 24.7934 35.3718 23.9967 36.1197 22.945C36.4314 22.4988 36.7119 21.9571 36.8988 21.3197C37.117 20.7142 37.2728 20.045 37.3975 19.3758C37.5221 18.7065 37.6156 18.0373 37.6468 17.3681C37.7091 16.6989 37.7091 16.0615 37.7091 15.5197V0.70105H40.6074V19.6945C40.6074 21.6703 40.9814 23.2318 41.7294 24.3791C42.4773 25.5263 43.8797 26.0681 45.9366 26.0681C46.9962 26.0681 48.0246 25.8131 48.9907 25.3032C49.9568 24.7934 50.8294 23.9967 51.5774 22.945C51.889 22.4988 52.1695 21.9571 52.3565 21.3197C52.5746 20.7142 52.7304 20.045 52.8551 19.3758C52.9798 18.7065 53.0733 18.0373 53.1044 17.3681C53.1668 16.6989 53.1668 16.0615 53.1668 15.5197V0.70105H53.2291Z" fill="black"/>
</g>
<defs>
<clipPath id="clip0_51_1384">
<rect width="114" height="29" fill="white"/>
</clipPath>
</defs>
</svg>
