<svg width="1388" height="1278" viewBox="0 0 1388 1278" fill="none" xmlns="http://www.w3.org/2000/svg">
<path d="M629.54 56.7911C639.46 -18.5853 748.54 -18.5852 758.46 56.7911C766.433 117.373 845.998 134.494 878.184 82.5544L886.968 68.3793C925.913 5.53308 1022.56 49.6165 1000.63 120.225C982.751 177.803 1048.21 225.171 1097.31 190.183L1116.19 176.732C1174.49 135.186 1243.84 211.569 1196.87 265.598C1158.01 310.304 1199.99 378.428 1257.39 363.813L1273.06 359.824C1341.17 342.486 1376.9 437.531 1314.25 469.359C1262.03 495.884 1276.43 574.099 1334.66 580.381C1404.82 587.95 1404.82 690.05 1334.66 697.619C1276.43 703.901 1262.03 782.116 1314.25 808.641C1376.9 840.469 1341.17 935.514 1273.06 918.176L1257.39 914.187C1199.99 899.572 1158.01 967.696 1196.87 1012.4C1243.84 1066.43 1174.49 1142.81 1116.19 1101.27L1097.31 1087.82C1048.21 1052.83 982.751 1100.2 1000.63 1157.78C1022.56 1228.38 925.913 1272.47 886.968 1209.62L878.184 1195.45C845.998 1143.51 766.433 1160.63 758.46 1221.21C748.54 1296.59 639.46 1296.59 629.54 1221.21C621.567 1160.63 542.002 1143.51 509.816 1195.45L501.032 1209.62C462.087 1272.47 365.44 1228.38 387.368 1157.78C405.249 1100.2 339.786 1052.83 290.687 1087.82L271.811 1101.27C213.511 1142.81 144.161 1066.43 191.128 1012.4C229.991 967.696 188.013 899.572 130.607 914.187L114.936 918.176C46.8333 935.514 11.0956 840.469 73.7498 808.641C125.965 782.116 111.568 703.901 53.3393 697.619C-16.8178 690.05 -16.8177 587.95 53.3394 580.381C111.568 574.099 125.965 495.884 73.7499 469.359C11.0957 437.531 46.8334 342.486 114.936 359.824L130.607 363.813C188.013 378.428 229.991 310.304 191.128 265.597C144.161 211.569 213.511 135.186 271.811 176.732L290.687 190.182C339.786 225.171 405.249 177.803 387.368 120.225C365.44 49.6165 462.087 5.53308 501.032 68.3793L509.816 82.5544C542.002 134.494 621.567 117.373 629.54 56.7911Z" fill="#FFC228"/>
</svg>
