<svg width="153" height="153" viewBox="0 0 153 153" fill="none" xmlns="http://www.w3.org/2000/svg">
<path d="M66.7467 8.09496C69.0983 -2.29511 83.9017 -2.29511 86.2533 8.09496L89.6766 23.2202C91.2001 29.9515 98.923 33.1526 104.762 29.4728L117.89 21.1991C126.906 15.5167 137.37 25.9997 131.672 35.0059L123.429 48.0333C119.733 53.8748 122.937 61.615 129.681 63.1352L144.729 66.5277C155.13 68.8725 155.13 83.6932 144.729 86.038L129.681 89.4305C122.937 90.9508 119.733 98.6909 123.429 104.532L131.672 117.56C137.37 126.566 126.906 137.049 117.89 131.367L104.762 123.093C98.923 119.413 91.2001 122.614 89.6766 129.346L86.2533 144.471C83.9017 154.861 69.0982 154.861 66.7467 144.471L63.3234 129.346C61.7999 122.614 54.077 119.413 48.2383 123.093L35.1104 131.367C26.0942 137.049 15.6297 126.566 21.328 117.56L29.5707 104.532C33.2667 98.6909 30.0627 90.9508 23.3193 89.4305L8.27125 86.038C-2.12978 83.6932 -2.12977 68.8725 8.27126 66.5277L23.3194 63.1352C30.0628 61.615 33.2667 53.8748 29.5707 48.0333L21.328 35.0059C15.6297 25.9997 26.0942 15.5167 35.1104 21.1991L48.2383 29.4727C54.077 33.1526 61.7999 29.9515 63.3234 23.2202L66.7467 8.09496Z" fill="#F775A9"/>
</svg>
