<svg width="164" height="166" viewBox="0 0 164 166" fill="none" xmlns="http://www.w3.org/2000/svg">
<path d="M72.2348 8.26835C74.5424 -2.19281 89.4576 -2.19281 91.7652 8.26835L95.8538 26.8029C97.3561 33.6133 105.193 36.833 111.049 33.0462L126.84 22.8356C135.789 17.0483 146.376 27.4101 140.781 36.4819L130.245 53.5671C126.655 59.3895 129.839 67.0173 136.503 68.5588L155.879 73.0406C166.208 75.4296 166.208 90.1371 155.879 92.5261L136.503 97.0078C129.839 98.5494 126.655 106.177 130.245 112L140.781 129.085C146.376 138.157 135.789 148.518 126.84 142.731L111.049 132.521C105.193 128.734 97.3561 131.953 95.8538 138.764L91.7652 157.298C89.4576 167.76 74.5424 167.76 72.2348 157.298L68.1462 138.764C66.6439 131.953 58.8074 128.734 52.951 132.521L37.1605 142.731C28.2105 148.518 17.6245 138.157 23.2189 129.085L33.755 112C37.3455 106.177 34.1613 98.5494 27.4968 97.0078L8.12093 92.5261C-2.20768 90.1371 -2.20766 75.4296 8.12094 73.0406L27.4968 68.5588C34.1613 67.0173 37.3455 59.3895 33.755 53.5671L23.2189 36.4819C17.6245 27.4101 28.2105 17.0483 37.1605 22.8356L52.951 33.0462C58.8074 36.833 66.6439 33.6133 68.1462 26.8029L72.2348 8.26835Z" fill="#10B48E"/>
</svg>
