<svg width="112" height="112" viewBox="0 0 112 112" fill="none" xmlns="http://www.w3.org/2000/svg">
<path d="M46.2458 8.18241C48.594 -2.21314 63.4061 -2.21314 65.7542 8.18242L66.1815 10.0741C67.7034 16.8115 75.4349 20.014 81.2751 16.326L82.9148 15.2906C91.926 9.60022 102.4 20.074 96.7094 29.0852L95.674 30.7249C91.986 36.5651 95.1885 44.2966 101.926 45.8185L103.818 46.2458C114.213 48.594 114.213 63.4061 103.818 65.7542L101.926 66.1815C95.1885 67.7034 91.986 75.4349 95.674 81.2751L96.7094 82.9149C102.4 91.926 91.926 102.4 82.9148 96.7094L81.2751 95.674C75.4349 91.986 67.7034 95.1885 66.1815 101.926L65.7542 103.818C63.406 114.213 48.5939 114.213 46.2458 103.818L45.8185 101.926C44.2966 95.1885 36.5651 91.986 30.7249 95.674L29.0851 96.7094C20.074 102.4 9.60023 91.926 15.2906 82.9148L16.326 81.2751C20.014 75.4349 16.8115 67.7034 10.0741 66.1815L8.18241 65.7542C-2.21314 63.406 -2.21314 48.5939 8.18242 46.2458L10.0741 45.8185C16.8115 44.2966 20.014 36.5651 16.326 30.7249L15.2906 29.0852C9.60022 20.074 20.074 9.60023 29.0852 15.2906L30.7249 16.326C36.5651 20.014 44.2966 16.8115 45.8185 10.0741L46.2458 8.18241Z" fill="#7BB8C0"/>
</svg>
