<svg width="112" height="113" viewBox="0 0 112 113" fill="none" xmlns="http://www.w3.org/2000/svg">
<path d="M46.2458 8.68241C48.594 -1.71314 63.4061 -1.71314 65.7542 8.68242L66.1815 10.5741C67.7034 17.3115 75.4349 20.514 81.2751 16.826L82.9148 15.7906C91.926 10.1002 102.4 20.574 96.7094 29.5852L95.674 31.2249C91.986 37.0651 95.1885 44.7966 101.926 46.3185L103.818 46.7458C114.213 49.094 114.213 63.9061 103.818 66.2542L101.926 66.6815C95.1885 68.2034 91.986 75.9349 95.674 81.7751L96.7094 83.4149C102.4 92.426 91.926 102.9 82.9148 97.2094L81.2751 96.174C75.4349 92.486 67.7034 95.6885 66.1815 102.426L65.7542 104.318C63.406 114.713 48.5939 114.713 46.2458 104.318L45.8185 102.426C44.2966 95.6885 36.5651 92.486 30.7249 96.174L29.0851 97.2094C20.074 102.9 9.60023 92.426 15.2906 83.4148L16.326 81.7751C20.014 75.9349 16.8115 68.2034 10.0741 66.6815L8.18241 66.2542C-2.21314 63.906 -2.21314 49.0939 8.18242 46.7458L10.0741 46.3185C16.8115 44.7966 20.014 37.0651 16.326 31.2249L15.2906 29.5852C9.60022 20.574 20.074 10.1002 29.0852 15.7906L30.7249 16.826C36.5651 20.514 44.2966 17.3115 45.8185 10.5741L46.2458 8.68241Z" fill="#10B48E"/>
</svg>
