<svg width="199" height="199" viewBox="0 0 199 199" fill="none" xmlns="http://www.w3.org/2000/svg">
<path d="M89.7458 8.18245C92.0939 -2.2131 106.906 -2.21312 109.254 8.18244L116.04 38.2233C117.562 44.9607 125.293 48.1632 131.134 44.4753L157.174 28.0314C166.185 22.3411 176.659 32.8148 170.969 41.826L154.525 67.8664C150.837 73.7066 154.039 81.4381 160.777 82.96L190.818 89.7458C201.213 92.0939 201.213 106.906 190.818 109.254L160.777 116.04C154.039 117.562 150.837 125.293 154.525 131.134L170.969 157.174C176.659 166.185 166.185 176.659 157.174 170.969L131.134 154.525C125.293 150.837 117.562 154.039 116.04 160.777L109.254 190.818C106.906 201.213 92.0939 201.213 89.7458 190.818L82.96 160.777C81.4381 154.039 73.7066 150.837 67.8664 154.525L41.826 170.969C32.8148 176.659 22.3411 166.185 28.0314 157.174L44.4753 131.134C48.1632 125.293 44.9607 117.562 38.2233 116.04L8.18245 109.254C-2.2131 106.906 -2.21312 92.0939 8.18244 89.7458L38.2233 82.96C44.9607 81.4381 48.1632 73.7066 44.4753 67.8664L28.0314 41.826C22.3411 32.8148 32.8148 22.3411 41.826 28.0314L67.8664 44.4753C73.7066 48.1632 81.4381 44.9607 82.96 38.2233L89.7458 8.18245Z" fill="#FFC228"/>
</svg>
