<svg width="46" height="49" viewBox="0 0 46 49" fill="none" xmlns="http://www.w3.org/2000/svg">
<path fill-rule="evenodd" clip-rule="evenodd" d="M13.6352 11.7886V9.3038C13.6352 4.16545 17.828 0 23 0C28.1722 0 32.3649 4.16545 32.3649 9.3038V11.7848V11.7886C39.0687 11.8186 42.6303 12.088 44.6282 14.509C46.8762 17.2333 46.0469 21.3523 44.3884 29.5903L42.8901 37.0333C41.737 42.7617 41.1604 45.6261 39.0889 47.3129C37.0176 49 34.0776 49 28.1974 49H17.8027C11.9224 49 8.98235 49 6.91099 47.3129C4.83965 45.6261 4.26305 42.7617 3.10985 37.0333L1.61147 29.5903C-0.0469646 21.3523 -0.876168 17.2333 1.37183 14.509C3.36967 12.088 6.93147 11.8186 13.6352 11.7886ZM17.3811 9.3038C17.3811 6.22079 19.8969 3.72152 23 3.72152C26.1032 3.72152 28.619 6.22079 28.619 9.3038V11.7848H17.3811V9.3038ZM30.492 21.7089C31.8712 21.7089 32.9893 20.5981 32.9893 19.2278C32.9893 17.8576 31.8712 16.7468 30.492 16.7468C29.1127 16.7468 27.9947 17.8576 27.9947 19.2278C27.9947 20.5981 29.1127 21.7089 30.492 21.7089ZM18.0054 19.2278C18.0054 20.5981 16.8873 21.7089 15.5081 21.7089C14.1289 21.7089 13.0108 20.5981 13.0108 19.2278C13.0108 17.8576 14.1289 16.7468 15.5081 16.7468C16.8873 16.7468 18.0054 17.8576 18.0054 19.2278Z" fill="#FFC228"/>
</svg>
