<svg width="24" height="24" viewBox="0 0 24 24" fill="none" xmlns="http://www.w3.org/2000/svg">
<path fill-rule="evenodd" clip-rule="evenodd" d="M6.8 6.99998C6.8 4.18332 9.08335 1.89998 11.9 1.89998C14.7167 1.89998 17 4.18332 17 6.99998C17 9.81663 14.7167 12.1 11.9 12.1C9.08335 12.1 6.8 9.81663 6.8 6.99998ZM15.7404 12.7333C17.5856 11.4949 18.8 9.38923 18.8 6.99998C18.8 3.18921 15.7108 0.0999756 11.9 0.0999756C8.08924 0.0999756 5 3.18921 5 6.99998C5 9.38923 6.21437 11.4949 8.05957 12.7333C3.37182 14.3307 0 18.7716 0 24H1.8C1.8 18.4219 6.32192 13.9 11.9 13.9C17.4781 13.9 22 18.4219 22 24H23.8C23.8 18.7716 20.4282 14.3307 15.7404 12.7333Z" fill="black"/>
</svg>
