<svg width="37" height="49" viewBox="0 0 37 49" fill="none" xmlns="http://www.w3.org/2000/svg">
<path d="M7.76298 3.90751C8.70073 3.61081 9.91553 3.34834 11.4074 3.12011C12.5156 2.93753 13.7624 2.77777 15.1477 2.64083C12.4837 2.36695 9.96881 2.57236 7.60314 3.25705C6.13259 3.73633 4.97107 4.30691 4.11858 4.96878C3.50052 5.47088 3.05296 5.9844 2.7759 6.50933C2.4349 7.14838 2.339 7.82165 2.48818 8.52917C2.48818 7.77601 2.66934 7.15979 3.03165 6.6805C3.30871 6.26969 3.75627 5.84746 4.37432 5.41383C5.22682 4.82043 6.35637 4.31832 7.76298 3.90751ZM4.78991 1.88767C8.02939 0.381347 12.2599 -0.223463 17.4814 0.0732359C23.4702 0.415581 28.34 1.64803 32.091 3.77057C33.9665 4.84325 35.3092 6.03005 36.119 7.33096C36.9928 8.72316 37.2166 10.1952 36.7904 11.7472C36.4707 12.9797 35.7887 13.8583 34.7444 14.3833C33.9558 14.7941 32.8689 15.0109 31.4836 15.0337L30.6205 15.068L29.7573 15.0337C28.9901 15.0337 28.4359 15.0337 28.0949 15.0337C26.9015 15.0794 26.0703 15.2962 25.6014 15.6842C24.8981 16.2776 24.5678 18.3887 24.6104 22.0176C24.653 25.4182 25.0047 29.5149 25.6653 34.3078C26.9015 43.3913 25.2178 48.2641 20.6143 48.9259C18.1208 49.2683 15.9682 48.4238 14.1567 46.3926C12.4517 44.4754 11.4607 41.9649 11.1836 38.861C10.9918 36.8069 10.9705 34.3991 11.1197 31.6375C11.2049 29.6975 11.3861 27.3468 11.6631 24.5852C12.2386 19.1533 12.441 16.1863 12.2705 15.6842C11.9722 14.8397 11.173 14.2692 9.8729 13.9725C9.38272 13.8583 8.74335 13.7671 7.9548 13.6986L6.89984 13.5959L5.84487 13.4932C4.11858 13.2878 2.82918 12.9112 1.97669 12.3634C0.80451 11.6103 0.154484 10.4007 0.0266096 8.73458C-0.229138 5.76758 1.35863 3.48528 4.78991 1.88767Z" fill="#FFC228"/>
</svg>
