<svg width="38" height="35" viewBox="0 0 38 35" fill="none" xmlns="http://www.w3.org/2000/svg">
<path d="M32.2301 5.72258C33.5077 6.99551 34.2147 8.74107 34.2147 10.6434C34.2147 13.0573 33.1711 15.4456 30.7624 18.4072C28.2788 21.4609 24.5164 24.8817 20.1353 28.8643L19.7707 29.1957L19.7691 29.1972L19.1894 29.715L18.6097 29.1973L18.6081 29.1958L18.244 28.8647L18.244 28.8647C13.8627 24.8822 10.1002 21.461 7.61646 18.4074C5.20765 15.4457 4.16405 13.0573 4.16405 10.6434C4.16405 8.74115 4.87104 6.99552 6.14875 5.72268L5.97231 5.54557L6.14875 5.72268C7.4222 4.45405 9.16644 3.75191 11.0657 3.75191C13.2594 3.75191 15.4325 4.76451 16.8733 6.46079L17.0638 6.29895L16.8733 6.4608L18.9988 8.96313L19.1894 9.18746L19.3799 8.96313L21.5053 6.46079C22.9463 4.76451 25.1192 3.75191 27.3131 3.75191C29.2124 3.75191 30.9565 4.45403 32.2301 5.72258ZM32.2301 5.72258L32.4055 5.54648L32.2301 5.72258ZM16.4032 31.6005L16.4048 31.6019L19.0228 33.9406L19.1894 34.0893L19.3559 33.9406L21.9739 31.602L21.9755 31.6005C22.1043 31.4834 22.2326 31.3668 22.3602 31.2508C26.8325 27.1854 30.5686 23.7893 33.2042 20.5812C35.9181 17.2777 37.492 14.1427 37.492 10.6434C37.492 4.92893 33.0467 0.501709 27.3131 0.501709C24.1779 0.501709 21.2187 1.88518 19.1894 4.14851C17.16 1.88519 14.2008 0.501709 11.0657 0.501709C5.332 0.501709 0.886719 4.92893 0.886719 10.6434C0.886719 14.1427 2.46055 17.2778 5.17453 20.5813C7.81027 23.7895 11.5466 27.1858 16.0193 31.2515C16.1467 31.3673 16.2746 31.4836 16.4032 31.6005Z" stroke="black" stroke-width="0.5"/>
</svg>
