<svg width="24" height="22" viewBox="0 0 24 22" fill="none" xmlns="http://www.w3.org/2000/svg">
<path fill-rule="evenodd" clip-rule="evenodd" d="M5.168 13.3257C5.21964 13.344 5.27176 13.3569 5.32383 13.3648C5.38063 13.5049 5.454 13.6859 5.5396 13.8976C5.74851 14.4143 6.02999 15.1133 6.32053 15.8423C6.91306 17.3292 7.51074 18.8619 7.64274 19.3007C7.80615 19.843 7.97888 20.2118 8.16744 20.4636C8.26495 20.5937 8.37771 20.7073 8.50965 20.7934C8.57607 20.8367 8.64624 20.8723 8.71948 20.8987C8.7227 20.9 8.72592 20.9011 8.72915 20.9022C9.10669 21.0517 9.4509 20.9894 9.6664 20.9133C9.78171 20.8725 9.87501 20.8234 9.94113 20.7835C9.97485 20.7631 10.0033 20.7442 10.0261 20.7281L10.0314 20.7244L13.3657 18.5436L17.217 21.6404C17.2738 21.6861 17.3358 21.7244 17.4015 21.7545C17.8642 21.9662 18.3122 22.0401 18.7337 21.9797C19.1544 21.9194 19.4885 21.7341 19.7372 21.5253C19.9807 21.321 20.1457 21.0921 20.2486 20.9221C20.3011 20.8353 20.3405 20.7584 20.3682 20.6996C20.3823 20.6701 20.3935 20.6446 20.4021 20.6242L20.4133 20.5972L20.4174 20.5865L20.4192 20.5821L20.42 20.58L20.4207 20.578C20.441 20.5249 20.4565 20.47 20.4671 20.4139L23.9831 1.82229C23.9943 1.76283 24 1.70235 24 1.64173C24 1.09729 23.8044 0.579584 23.3445 0.265435C22.9514 -0.0030687 22.5135 -0.0146255 22.2367 0.00739926C21.9383 0.0311686 21.6625 0.108465 21.4774 0.170221C21.3812 0.202367 21.3005 0.233375 21.2423 0.257033C21.2131 0.268924 21.189 0.279132 21.1712 0.286915L21.1577 0.29283L1.43962 8.40552L1.43707 8.40651C1.42451 8.41134 1.40837 8.41765 1.3892 8.42544C1.35102 8.44103 1.29986 8.46293 1.2401 8.49139C1.12356 8.54683 0.960074 8.63332 0.792301 8.75383C0.524271 8.94636 -0.0921402 9.4736 0.0116549 10.3438C0.0944621 11.0381 0.547937 11.4645 0.824225 11.6695C0.97593 11.7821 1.12006 11.8625 1.22502 11.915C1.27371 11.9393 1.37482 11.9823 1.41868 12.0011L1.42976 12.0058L5.168 13.3257ZM21.8479 2.00185L21.8451 2.00311C21.8353 2.00759 21.8254 2.01187 21.8154 2.01598L2.07333 10.1385C2.06302 10.1428 2.05264 10.1468 2.04218 10.1507L2.0312 10.155C2.01856 10.1602 1.99731 10.1692 1.97062 10.1819C1.95548 10.189 1.93969 10.1969 1.92358 10.2054C1.94571 10.2185 1.96688 10.2297 1.9857 10.2391C2.00376 10.2482 2.01754 10.2544 2.02508 10.2576L5.73262 11.5667C5.80048 11.5907 5.86374 11.6224 5.9218 11.6607L18.1639 4.14446L18.1753 4.13735C18.1843 4.13182 18.1959 4.12472 18.21 4.11639C18.2378 4.09988 18.2762 4.07789 18.3217 4.05357C18.4067 4.00823 18.5426 3.9409 18.6957 3.89126C18.8023 3.8567 19.1167 3.75933 19.4566 3.87368C19.6664 3.94424 19.8836 4.09595 20.0248 4.35295C20.095 4.48063 20.1324 4.60889 20.1504 4.72631C20.1986 4.91126 20.191 5.09391 20.1534 5.25158C20.0722 5.59125 19.8447 5.85619 19.6376 6.05884C19.4603 6.23257 17.1652 8.55363 14.9011 10.8449C13.772 11.9875 12.6544 13.1189 11.8191 13.9645L11.2704 14.5201L18.198 20.0904C18.3567 20.15 18.4507 20.147 18.4942 20.1407C18.546 20.1333 18.5883 20.1124 18.6316 20.0761C18.68 20.0356 18.7224 19.9806 18.754 19.9283L18.7553 19.9262L22.1654 1.8944C22.1147 1.90715 22.0635 1.92235 22.0142 1.93881C21.9583 1.95745 21.9123 1.97522 21.8817 1.98763C21.8666 1.99378 21.8558 1.99845 21.8499 2.00102L21.8479 2.00185ZM11.8656 17.3374L10.4835 16.226L10.1486 18.4603L11.8656 17.3374ZM9.21565 14.0208L10.59 12.6292C11.4254 11.7835 12.5431 10.652 13.6723 9.50923L14.8196 8.34836L7.12756 13.071L7.16883 13.1731C7.37848 13.6917 7.66122 14.3936 7.9533 15.1266C8.17171 15.6747 8.4001 16.2518 8.60813 16.786L8.94203 14.5583C8.97423 14.3435 9.07427 14.1577 9.21565 14.0208Z" fill="black"/>
</svg>
