<svg width="53" height="49" viewBox="0 0 53 49" fill="none" xmlns="http://www.w3.org/2000/svg">
<path d="M42.4434 6.75077C42.773 5.77022 43.1246 4.9607 43.4981 4.32221C44.0474 3.38727 44.6955 2.82859 45.4426 2.64616C44.9812 2.62336 44.5417 2.74877 44.1243 3.02242C43.7288 3.29606 43.3882 3.6267 43.1026 4.01436C42.6412 4.65286 42.2237 5.49658 41.8502 6.54554C41.257 8.25579 40.9054 10.0687 40.7956 11.9841L41.224 10.6844L41.6195 9.35035C41.9491 8.23299 42.2237 7.36646 42.4434 6.75077ZM38.5874 24.0243C38.8511 23.5683 39.0488 23.0666 39.1806 22.5193C39.3125 21.972 39.3674 21.4361 39.3454 20.9117L39.0158 21.63L38.7192 22.3483C38.4556 22.9184 38.2249 23.363 38.0271 23.6823C37.7854 24.1155 37.4888 24.469 37.1373 24.7426C36.8077 25.0163 36.3682 25.2443 35.8189 25.4267C36.3463 25.5408 36.8626 25.4609 37.368 25.1873C37.8294 24.9593 38.2358 24.5716 38.5874 24.0243ZM22.4052 19.9197C22.7348 19.418 23.0204 18.9734 23.2621 18.5857C24.0311 17.4456 24.7232 16.6702 25.3384 16.2598C24.5255 16.5562 23.7015 17.2289 22.8666 18.2779C22.4052 18.848 21.801 19.7373 21.0539 20.9459L20.6584 21.63L20.23 22.3141C19.9224 22.8158 19.6258 23.249 19.3401 23.6139C18.5931 24.526 17.7362 25.0391 16.7694 25.1531C17.2748 25.2215 17.8021 25.1417 18.3514 24.9137C18.8128 24.7084 19.2632 24.3892 19.7027 23.9559C20.0322 23.5911 20.3728 23.1578 20.7243 22.6561L21.1857 22.0062L21.6142 21.3221L22.4052 19.9197ZM3.88298 8.3242C4.23453 7.07002 4.641 6.03246 5.10241 5.21154C5.76156 4.02576 6.57452 3.36447 7.54128 3.22765C6.99198 3.18204 6.44269 3.33026 5.8934 3.67231C5.47593 3.94595 5.06945 4.36782 4.67396 4.9379C4.12467 5.73602 3.65228 6.79638 3.25678 8.11897C2.68552 10.3309 2.47679 12.634 2.63059 15.0284L2.89425 13.3181L3.15791 11.6421C3.37763 10.3651 3.61932 9.25914 3.88298 8.3242ZM40.5978 3.77493C41.8063 1.40338 43.3662 0.149189 45.2778 0.0123688C48.3758 -0.192862 50.584 2.15589 51.9023 7.05861C53.1766 11.8473 53.3414 18.0612 52.3966 25.7004C51.4519 33.4079 49.782 39.2912 47.3871 43.3502C45.2338 46.9987 42.6851 48.88 39.7409 48.994C34.7313 49.1537 30.8753 46.1094 28.1728 39.8613C27.3378 37.9002 26.5578 37.1135 25.8328 37.5011C25.3494 37.7748 24.6463 38.8921 23.7235 40.8532C22.559 43.3844 21.4714 45.1859 20.4607 46.2576C19.3181 47.4662 17.9229 48.1617 16.2751 48.3441C12.9134 48.709 9.87029 47.2724 7.14579 44.0343C4.04777 40.3401 1.94946 34.8331 0.850875 27.5132C-0.225742 20.3986 -0.280672 14.3329 0.686086 9.31615C1.80665 3.70652 4.03678 0.799085 7.37649 0.593855C9.33198 0.457035 10.892 1.46038 12.0565 3.6039C12.9353 5.22294 13.6275 7.6515 14.1328 10.8896C14.3086 11.8929 14.4953 13.2269 14.6931 14.8916L14.792 15.8493L14.9238 16.7729C15.0117 17.457 15.0886 18.027 15.1545 18.4831C15.506 20.9003 15.9675 22.2229 16.5387 22.4509C16.9782 22.6333 17.5055 22.2913 18.1207 21.4247C18.3404 21.1055 18.637 20.638 19.0105 20.0223L19.2412 19.6119L19.5049 19.2014L20.0322 18.3463C20.955 16.8869 21.8229 15.7809 22.6359 15.0284C23.7564 13.9794 24.9539 13.4208 26.2283 13.3523C27.3488 13.2611 28.4254 13.7058 29.4581 14.6863C30.1832 15.4161 30.9852 16.522 31.864 18.0042L32.3913 18.9278L32.8857 19.7829C33.2592 20.467 33.5668 20.9915 33.8085 21.3563C34.4897 22.3597 35.1049 22.8386 35.6542 22.7929C36.2035 22.7473 36.6868 21.5616 37.1043 19.2356C37.1702 18.7796 37.2581 18.2209 37.368 17.5596L37.4998 16.636L37.6646 15.6441C37.9063 13.9338 38.115 12.5656 38.2908 11.5395C38.906 8.16458 39.675 5.57639 40.5978 3.77493Z" fill="#7BB8C0"/>
</svg>
