<svg width="39" height="49" viewBox="0 0 39 49" fill="none" xmlns="http://www.w3.org/2000/svg">
<path d="M27.4781 4.20381C27.7364 3.83878 28.0162 3.58782 28.3175 3.45093C28.5973 3.31405 28.9739 3.21138 29.4474 3.14294C28.9739 3.12012 28.5758 3.16575 28.2529 3.27983C27.9086 3.3939 27.575 3.62204 27.2522 3.96426C26.8002 4.48899 26.4343 5.26468 26.1545 6.29133C25.8317 7.56894 25.6811 9.2344 25.7026 11.2877L25.7349 11.9379V12.5539C25.7564 13.033 25.7564 13.4323 25.7349 13.7517C25.6918 14.5502 25.5412 15.3373 25.2829 16.113C24.7233 17.7328 23.7118 18.9077 22.2483 19.6378C22.98 19.4096 23.6687 18.999 24.3144 18.4058C24.8955 17.8354 25.3582 17.1396 25.7026 16.3183C26.0254 15.5882 26.2299 14.7555 26.316 13.8201C26.3375 13.4551 26.3482 13.0216 26.3482 12.5197V11.9037L26.316 11.2877C26.2944 9.32566 26.3913 7.69442 26.6065 6.394C26.8002 5.43579 27.0907 4.70573 27.4781 4.20381ZM4.81538 7.42065C5.2243 6.18867 5.79463 5.15061 6.52638 4.30648C7.40879 3.30264 8.42033 2.74369 9.561 2.62961C8.9799 2.56117 8.37728 2.64102 7.75314 2.86917C7.19357 3.09731 6.67704 3.45093 6.20355 3.93004C5.34267 4.75136 4.68624 5.84645 4.23428 7.21532C3.45949 9.63365 3.0398 12.1318 2.97524 14.7099L3.36264 12.8619L3.8146 11.0481C4.13743 9.65647 4.47102 8.4473 4.81538 7.42065ZM24.6695 3.65626C25.5734 1.69422 27.123 0.644756 29.3183 0.50787C32.3744 0.348168 34.8172 2.52695 36.6466 7.04421C38.3899 11.379 39.1646 16.7974 38.9709 23.2995C38.7127 31.7409 38.0347 37.7867 36.9371 41.437C35.409 46.479 32.7295 49 28.8986 49C26.6603 49 24.9278 48.076 23.701 46.228C22.3882 44.2432 21.8178 41.3686 21.99 37.6042C22.0976 35.3684 21.8071 33.7371 21.1184 32.7105C20.5803 31.9348 19.827 31.5469 18.8585 31.5469C16.8785 31.5469 16.0392 33.6573 16.3405 37.8779C16.7494 43.65 14.8877 46.8554 10.7555 47.4942C8.88305 47.768 7.19357 47.2319 5.68702 45.8858C3.8146 44.2432 2.45871 41.5397 1.61935 37.7753C0.478675 32.7105 -0.0593779 27.3719 0.00518836 21.7595C0.0697547 15.9418 0.779984 10.8999 2.13588 6.63355C2.82458 4.42055 3.91145 2.70946 5.39647 1.5003C6.96759 0.245503 8.71088 -0.222193 10.6263 0.0972094C13.0368 0.485055 14.7693 1.58015 15.8239 3.38249C16.9861 5.41298 17.3628 8.43589 16.9538 12.4512C16.8032 13.8657 16.9969 15.0179 17.5349 15.9076C18.073 16.7746 18.8801 17.2537 19.9562 17.3449C20.9892 17.4362 21.8394 17.1054 22.5065 16.3525C23.2813 15.4856 23.6365 14.1851 23.5719 12.4512C23.3997 8.48152 23.7656 5.54986 24.6695 3.65626Z" fill="#F775A9"/>
</svg>
