<svg width="31" height="49" viewBox="0 0 31 49" fill="none" xmlns="http://www.w3.org/2000/svg">
<path d="M10.2826 41.2632C10.6951 40.1675 11.1728 39.3001 11.7157 38.661C12.3888 37.8848 13.1922 37.3713 14.1258 37.1202C13.6482 36.9832 13.1379 37.0289 12.595 37.2571C12.1174 37.4626 11.6831 37.7821 11.2922 38.2158C10.5106 39.1289 10.174 40.1447 10.2826 41.2632ZM9.95686 36.4354C11.1728 35.1799 12.5625 34.5522 14.1258 34.5522C15.9498 34.5522 17.4589 35.3397 18.6531 36.9147C19.8691 38.5126 20.3359 40.4072 20.0536 42.5985C19.7714 44.8127 18.8485 46.5247 17.2852 47.7345C15.7435 48.9443 14.0933 49.2867 12.3345 48.7617C10.8145 48.328 9.63116 47.3464 8.78433 45.8171C7.9375 44.3333 7.62266 42.7012 7.83979 40.9208C8.07864 39.1403 8.78433 37.6452 9.95686 36.4354ZM12.6928 3.35978C13.5396 3.13151 14.2996 2.97172 14.9727 2.88042C15.3201 2.81194 15.7109 2.74346 16.1452 2.67498L17.3177 2.57226C15.8629 2.45813 14.2887 2.56085 12.595 2.88042C11.0968 3.17716 9.58773 3.67935 8.06778 4.38697C6.41756 5.18589 5.09304 6.12178 4.09422 7.19463C3.46452 7.87942 3.00854 8.56422 2.72627 9.24901C2.37885 10.1164 2.292 10.9496 2.4657 11.7485C2.37885 10.242 3.03026 8.83813 4.41992 7.53702C5.50559 6.53266 6.8084 5.67666 8.32835 4.96904C9.65287 4.3299 11.1077 3.79348 12.6928 3.35978ZM13.4419 23.9379L14.1258 23.5955C14.6904 23.3672 15.1464 23.0705 15.4938 22.7052C14.8641 22.8878 14.3647 23.0248 13.9956 23.1161C13.4527 23.2531 12.9425 23.4585 12.4648 23.7324C11.8785 24.0748 11.4659 24.4515 11.2271 24.8623C10.858 25.4102 10.7494 25.9694 10.9014 26.5401C11.01 25.9922 11.238 25.5357 11.5854 25.1705C11.8676 24.8737 12.2585 24.577 12.7579 24.2803C12.9533 24.1661 13.1813 24.052 13.4419 23.9379ZM13.4093 0.346677C15.7978 -0.0641995 17.9908 -0.109853 19.9885 0.209718C23.9621 0.84886 26.8934 2.38965 28.7825 4.83208C30.5195 7.09191 31.2361 9.89957 30.9321 13.2551C30.4544 19.0758 27.9899 23.721 23.5386 27.1906C21.845 28.5146 20.0102 29.5418 18.0343 30.2722C16.3189 30.9114 14.8098 31.2309 13.507 31.2309C11.9871 31.2309 10.7603 30.7858 9.82658 29.8956C8.97975 29.051 8.52377 27.9667 8.45863 26.6428C8.35006 23.9721 9.97857 22.0661 13.3442 20.9248C14.2344 20.6052 14.9184 20.1144 15.3961 19.4525C15.8521 18.8361 16.0258 18.2198 15.9172 17.6035C15.7869 16.9644 15.3961 16.5078 14.7447 16.2339C13.9847 15.96 12.9967 15.9828 11.7808 16.3024C4.50677 18.3111 0.598344 16.8959 0.055507 12.0567C-0.183341 10.1164 0.348639 8.2903 1.65145 6.57831C2.80226 5.02611 4.48506 3.69076 6.69983 2.57226C8.7409 1.52224 10.9774 0.780381 13.4093 0.346677Z" fill="#10B48E"/>
</svg>
