<svg width="41" height="38" viewBox="0 0 41 38" fill="none" xmlns="http://www.w3.org/2000/svg">
<path d="M17.4183 34.2625L17.4199 34.264L20.2099 36.7571L20.3765 36.906L20.5431 36.7571L23.3331 34.264L23.3347 34.2625C23.4718 34.1378 23.6082 34.0138 23.744 33.8903C28.5108 29.5557 32.4915 25.9359 35.2995 22.5168C38.1906 18.9964 39.8653 15.6578 39.8653 11.9328C39.8653 5.84998 35.1354 1.13745 29.0339 1.13745C25.6913 1.13745 22.5364 2.61583 20.3765 5.03342C18.2164 2.61583 15.0617 1.13745 11.719 1.13745C5.61755 1.13745 0.887695 5.84998 0.887695 11.9328C0.887695 15.6579 2.56232 18.9965 5.45347 22.5169C8.26163 25.9362 12.2426 29.5562 17.0098 33.8911C17.1453 34.0143 17.2815 34.1381 17.4183 34.2625ZM21.3955 31.37L21.0069 31.7234L21.0053 31.7249L20.3765 32.2868L19.7478 31.725L19.7461 31.7235L19.358 31.3705L19.358 31.3705C14.6892 27.1251 10.6783 23.4769 8.03047 20.2203C5.46223 17.0614 4.34751 14.5116 4.34751 11.9328C4.34751 9.90066 5.10255 8.03538 6.46748 6.67518L6.29101 6.49809L6.46748 6.67517C7.82786 5.31947 9.69093 4.56939 11.719 4.56939C14.0618 4.56939 16.3821 5.65106 17.9207 7.46307L18.1113 7.30126L17.9207 7.46307L20.1859 10.1308L20.3765 10.3552L20.5671 10.1308L22.8321 7.46307C24.3708 5.65106 26.6911 4.56939 29.0339 4.56939C31.0621 4.56939 32.9251 5.31947 34.2856 6.67507C35.6504 8.03538 36.4055 9.90057 36.4055 11.9328C36.4055 14.5116 35.2907 17.0613 32.7227 20.2201C30.0749 23.4767 26.0642 27.1246 21.3955 31.37Z" stroke="black" stroke-width="0.5"/>
</svg>
